# This file uses centimeters as units for non-parametric coordinates.

mtllib enemySplitter.mtl
g default
v 0.951057 -0.309017 -0.000000
v 0.809018 -0.587785 -0.000000
v 0.809018 -0.587786 -0.705111
v 0.951057 -0.309017 -0.705111
v 1.000000 0.000000 0.000000
v 1.000000 0.000000 -0.705111
v 0.461736 -0.335471 -0.000000
v 0.461736 -0.150027 -0.000000
v 0.587786 -0.809017 -0.000000
v 0.587786 -0.809017 -0.705111
v 0.461736 -0.150027 -0.810741
v 0.461736 -0.335471 -0.793241
v 0.951057 0.309017 0.000000
v 0.951057 0.309017 -0.705111
v 0.461736 0.000000 0.000000
v 0.461736 0.000000 -0.815619
v 0.461736 -0.461736 0.000000
v 0.335471 -0.461736 -0.000000
v 0.309017 -0.951057 -0.000000
v 0.309017 -0.951057 -0.705111
v 0.335471 -0.461736 -0.793241
v 0.461736 -0.461736 -0.774682
v 0.809017 0.587785 0.000000
v 0.809017 0.587785 -0.705111
v 0.461736 0.150027 0.000000
v 0.461736 0.150027 -0.810741
v 0.150027 -0.461736 -0.000000
v 0.000000 -1.000000 -0.000000
v 0.000000 -1.000000 -0.705111
v 0.150027 -0.461736 -0.810741
v 0.587785 0.809017 0.000000
v 0.587785 0.809017 -0.705111
v 0.461736 0.335471 0.000000
v 0.461736 0.335471 -0.793241
v 0.000000 -0.461736 -0.000000
v -0.309017 -0.951057 -0.000000
v -0.309017 -0.951057 -0.705111
v 0.000000 -0.461736 -0.815619
v 0.309017 0.951057 0.000000
v 0.309017 0.951057 -0.705111
v 0.335471 0.461736 0.000000
v 0.461736 0.461736 0.000000
v 0.461736 0.461736 -0.774682
v 0.335471 0.461736 -0.793241
v -0.150027 -0.461736 -0.000000
v -0.587785 -0.809017 -0.000000
v -0.587785 -0.809017 -0.705111
v -0.150027 -0.461736 -0.810741
v 0.000000 1.000000 0.000000
v -0.000000 1.000000 -0.705111
v 0.150027 0.461736 0.000000
v 0.150027 0.461736 -0.810741
v -0.335471 -0.461736 -0.000000
v -0.809017 -0.587785 -0.000000
v -0.809017 -0.587785 -0.705111
v -0.335471 -0.461736 -0.793241
v -0.309017 0.951057 0.000000
v -0.309017 0.951057 -0.705111
v 0.000000 0.461736 0.000000
v -0.000000 0.461736 -0.815619
v -0.461736 -0.461736 0.000000
v -0.461736 -0.335471 -0.000000
v -0.951057 -0.309017 -0.000000
v -0.951057 -0.309017 -0.705111
v -0.461736 -0.335471 -0.793241
v -0.461736 -0.461736 -0.774682
v -0.587785 0.809017 0.000000
v -0.587785 0.809017 -0.705111
v -0.150027 0.461736 0.000000
v -0.150027 0.461736 -0.810741
v -0.461736 -0.150027 -0.000000
v -1.000000 0.000000 0.000000
v -1.000000 0.000000 -0.705111
v -0.461736 -0.150027 -0.810741
v -0.809017 0.587786 0.000000
v -0.809017 0.587785 -0.705111
v -0.335471 0.461736 0.000000
v -0.335471 0.461736 -0.793241
v -0.461736 0.000000 0.000000
v -0.951057 0.309017 0.000000
v -0.951057 0.309017 -0.705111
v -0.461736 0.000000 -0.815619
v -0.461736 0.335471 0.000000
v -0.461736 0.461736 0.000000
v -0.461736 0.461736 -0.774682
v -0.461736 0.335471 -0.793241
v -0.461736 0.150027 0.000000
v -0.461736 0.150027 -0.810741
vt 0.375000 0.312500
vt 0.387500 0.312500
vt 0.387500 0.688440
vt 0.375000 0.688440
vt 0.612500 0.312500
vt 0.625000 0.312500
vt 0.625000 0.688440
vt 0.612500 0.688440
vt 0.572146 0.101150
vt 0.626409 0.064408
vt 0.648603 0.107966
vt 0.572146 0.129593
vt 0.400000 0.312500
vt 0.400000 0.688440
vt 0.572146 0.863976
vt 0.648603 0.892034
vt 0.626409 0.935591
vt 0.572146 0.893484
vt 0.600000 0.312500
vt 0.600000 0.688440
vt 0.656250 0.156250
vt 0.572146 0.152886
vt 0.572146 0.840386
vt 0.656250 0.843750
vt 0.591842 0.029841
vt 0.572146 0.081986
vt 0.552417 0.081421
vt 0.412500 0.312500
vt 0.412500 0.688440
vt 0.591841 0.970159
vt 0.552417 0.913213
vt 0.572146 0.913778
vt 0.587500 0.312500
vt 0.587500 0.688440
vt 0.648603 0.204534
vt 0.572146 0.176476
vt 0.572146 0.817093
vt 0.648603 0.795466
vt 0.523442 0.080888
vt 0.548284 0.007647
vt 0.425000 0.312500
vt 0.425000 0.688440
vt 0.548284 0.992353
vt 0.523442 0.912681
vt 0.575000 0.312500
vt 0.575000 0.688440
vt 0.626409 0.248091
vt 0.572146 0.205984
vt 0.572146 0.788650
vt 0.626409 0.751908
vt 0.500000 0.080739
vt 0.500000 -0.000000
vt 0.437500 0.312500
vt 0.437500 0.688440
vt 0.500000 1.000000
vt 0.500000 0.912532
vt 0.562500 0.312500
vt 0.562500 0.688440
vt 0.591841 0.282659
vt 0.552417 0.225713
vt 0.572146 0.226278
vt 0.591842 0.717341
vt 0.572146 0.769486
vt 0.552417 0.768921
vt 0.476558 0.080888
vt 0.451716 0.007647
vt 0.450000 0.312500
vt 0.450000 0.688440
vt 0.451716 0.992353
vt 0.476558 0.912681
vt 0.550000 0.312500
vt 0.550000 0.688440
vt 0.548284 0.304853
vt 0.523442 0.225181
vt 0.523442 0.768388
vt 0.548284 0.695147
vt 0.447583 0.081421
vt 0.408159 0.029841
vt 0.462500 0.312500
vt 0.462500 0.688440
vt 0.408159 0.970159
vt 0.447583 0.913213
vt 0.537500 0.312500
vt 0.537500 0.688440
vt 0.500000 0.312500
vt 0.500000 0.225032
vt 0.500000 0.768239
vt 0.500000 0.687500
vt 0.373591 0.064409
vt 0.427854 0.081986
vt 0.427854 0.101150
vt 0.475000 0.312500
vt 0.475000 0.688440
vt 0.373591 0.935591
vt 0.427854 0.893484
vt 0.427854 0.913778
vt 0.525000 0.312500
vt 0.525000 0.688440
vt 0.451716 0.304853
vt 0.476558 0.225181
vt 0.476558 0.768388
vt 0.451716 0.695147
vt 0.427854 0.129593
vt 0.351397 0.107966
vt 0.487500 0.312500
vt 0.487500 0.688440
vt 0.351397 0.892034
vt 0.427854 0.863976
vt 0.512500 0.312500
vt 0.512500 0.688440
vt 0.408159 0.282659
vt 0.447583 0.225713
vt 0.447583 0.768921
vt 0.408159 0.717341
vt 0.427854 0.152886
vt 0.343750 0.156250
vt 0.500000 0.312500
vt 0.500000 0.688440
vt 0.343750 0.843750
vt 0.427854 0.840386
vt 0.373591 0.248091
vt 0.427854 0.205985
vt 0.427854 0.226278
vt 0.373591 0.751909
vt 0.427854 0.769486
vt 0.427854 0.788650
vt 0.427854 0.176476
vt 0.351397 0.204534
vt 0.351397 0.795466
vt 0.427854 0.817093
vt 0.625000 0.349560
vt 0.590818 0.349560
vt 0.540615 0.349560
vt 0.500000 0.349560
vt 0.459385 0.349560
vt 0.409182 0.349560
vt 0.375000 0.349560
vt 0.375000 0.449003
vt 0.409182 0.451385
vt 0.459385 0.453631
vt 0.500000 0.454258
vt 0.540615 0.453631
vt 0.590818 0.451385
vt 0.625000 0.449003
vt 0.724560 0.000000
vt 0.724560 0.034182
vt 0.724560 0.084385
vt 0.724560 0.125000
vt 0.724560 0.165615
vt 0.724560 0.215818
vt 0.724560 0.250000
vt 0.824003 0.250000
vt 0.826385 0.215818
vt 0.828631 0.165615
vt 0.829258 0.125000
vt 0.828631 0.084385
vt 0.826385 0.034182
vt 0.824003 0.000000
vt 0.175997 0.000000
vt 0.173615 0.034182
vt 0.171369 0.084385
vt 0.170742 0.125000
vt 0.171369 0.165615
vt 0.173615 0.215818
vt 0.175997 0.250000
vt 0.275440 0.250000
vt 0.275440 0.215818
vt 0.275440 0.165615
vt 0.275440 0.125000
vt 0.275440 0.084385
vt 0.275440 0.034182
vt 0.275440 0.000000
vt 0.625000 0.800997
vt 0.590818 0.798615
vt 0.540615 0.796369
vt 0.500000 0.795742
vt 0.459385 0.796368
vt 0.409182 0.798615
vt 0.375000 0.800997
vt 0.375000 0.900440
vt 0.409182 0.900440
vt 0.459385 0.900440
vt 0.500000 0.900440
vt 0.540615 0.900440
vt 0.590818 0.900440
vt 0.625000 0.900440
vn 0.951057 -0.309016 -0.000000
vn 0.809017 -0.587785 0.000000
vn 0.809017 -0.587785 0.000000
vn 0.951057 -0.309016 -0.000000
vn 1.000000 0.000001 -0.000000
vn 1.000000 0.000001 -0.000000
vn 0.000000 -0.000000 1.000000
vn 0.000000 -0.000000 1.000000
vn 0.000000 -0.000000 1.000000
vn 0.000000 -0.000000 1.000000
vn 0.587785 -0.809017 0.000000
vn 0.587785 -0.809017 0.000000
vn 0.193605 -0.054930 -0.979541
vn 0.191614 -0.061076 -0.979568
vn 0.164095 -0.116289 -0.979566
vn 0.171435 -0.106150 -0.979460
vn 0.951057 0.309017 -0.000000
vn 0.951057 0.309017 -0.000000
vn -0.000000 -0.000000 1.000000
vn -0.000000 -0.000000 1.000000
vn 0.201109 0.000000 -0.979569
vn 0.201109 0.000000 -0.979569
vn 0.000000 -0.000000 1.000000
vn 0.000000 -0.000000 1.000000
vn 0.000000 -0.000000 1.000000
vn 0.309017 -0.951057 0.000000
vn 0.309017 -0.951057 0.000000
vn 0.116289 -0.164095 -0.979566
vn 0.106150 -0.171435 -0.979460
vn 0.143905 -0.143905 -0.979072
vn 0.809017 0.587785 -0.000000
vn 0.809017 0.587785 -0.000000
vn 0.000000 -0.000000 1.000000
vn 0.000000 -0.000000 1.000000
vn 0.193605 0.054930 -0.979541
vn 0.191614 0.061077 -0.979568
vn 0.000000 -0.000000 1.000000
vn 0.000000 -0.000000 1.000000
vn -0.000000 -1.000000 0.000000
vn -0.000000 -1.000000 0.000000
vn 0.061077 -0.191614 -0.979568
vn 0.054930 -0.193605 -0.979541
vn 0.587785 0.809017 -0.000000
vn 0.587785 0.809017 -0.000000
vn 0.000000 -0.000000 1.000000
vn 0.000000 -0.000000 1.000000
vn 0.171435 0.106150 -0.979460
vn 0.164095 0.116289 -0.979566
vn 0.000000 -0.000000 1.000000
vn 0.000000 -0.000000 1.000000
vn -0.309017 -0.951057 0.000000
vn -0.309017 -0.951056 0.000000
vn -0.000000 -0.201109 -0.979569
vn -0.000000 -0.201109 -0.979569
vn 0.309017 0.951056 -0.000000
vn 0.309017 0.951057 -0.000000
vn 0.000000 -0.000000 1.000000
vn 0.000000 -0.000000 1.000000
vn 0.000000 -0.000000 1.000000
vn 0.116289 0.164095 -0.979566
vn 0.143906 0.143905 -0.979072
vn 0.106150 0.171435 -0.979460
vn -0.000000 -0.000000 1.000000
vn -0.000000 -0.000000 1.000000
vn -0.587785 -0.809017 0.000000
vn -0.587785 -0.809017 0.000000
vn -0.061077 -0.191614 -0.979568
vn -0.054930 -0.193605 -0.979541
vn 0.000000 1.000000 -0.000000
vn 0.000000 1.000000 -0.000000
vn 0.000000 -0.000000 1.000000
vn 0.000000 -0.000000 1.000000
vn 0.054930 0.193605 -0.979541
vn 0.061077 0.191614 -0.979568
vn -0.000000 -0.000000 1.000000
vn -0.000000 -0.000000 1.000000
vn -0.809017 -0.587785 0.000000
vn -0.809017 -0.587785 0.000000
vn -0.116289 -0.164095 -0.979566
vn -0.106150 -0.171435 -0.979460
vn -0.309017 0.951057 -0.000000
vn -0.309017 0.951057 -0.000000
vn 0.000000 -0.000000 1.000000
vn 0.000000 -0.000000 1.000000
vn -0.000000 0.201109 -0.979569
vn -0.000000 0.201109 -0.979569
vn -0.000000 -0.000000 1.000000
vn -0.000000 -0.000000 1.000000
vn -0.000000 -0.000000 1.000000
vn -0.951057 -0.309017 0.000000
vn -0.951057 -0.309017 0.000000
vn -0.164095 -0.116289 -0.979566
vn -0.171435 -0.106150 -0.979460
vn -0.143905 -0.143905 -0.979072
vn -0.587785 0.809017 -0.000000
vn -0.587785 0.809017 -0.000000
vn 0.000000 -0.000000 1.000000
vn 0.000000 -0.000000 1.000000
vn -0.054930 0.193605 -0.979541
vn -0.061077 0.191614 -0.979568
vn 0.000000 -0.000000 1.000000
vn 0.000000 -0.000000 1.000000
vn -1.000000 0.000000 0.000000
vn -1.000000 -0.000000 0.000000
vn -0.191614 -0.061077 -0.979568
vn -0.193605 -0.054930 -0.979541
vn -0.809017 0.587785 -0.000000
vn -0.809017 0.587785 -0.000000
vn -0.000000 -0.000000 1.000000
vn -0.000000 -0.000000 1.000000
vn -0.106150 0.171435 -0.979460
vn -0.116289 0.164095 -0.979566
vn -0.000000 -0.000000 1.000000
vn -0.000000 -0.000000 1.000000
vn -0.951057 0.309017 0.000000
vn -0.951056 0.309017 0.000000
vn -0.201109 0.000000 -0.979569
vn -0.201109 0.000000 -0.979569
vn -0.000000 -0.000000 1.000000
vn -0.000000 -0.000000 1.000000
vn -0.000000 -0.000000 1.000000
vn -0.164095 0.116289 -0.979566
vn -0.143905 0.143906 -0.979072
vn -0.171435 0.106150 -0.979460
vn -0.000000 -0.000000 1.000000
vn -0.000000 -0.000000 1.000000
vn -0.191614 0.061077 -0.979568
vn -0.193605 0.054930 -0.979541
vn 0.000000 -1.000000 -0.000000
vn 0.000000 -1.000000 -0.000000
vn 0.000000 -1.000000 -0.000000
vn 0.000000 -1.000000 -0.000000
vn 0.000000 -1.000000 -0.000000
vn 0.000000 -1.000000 -0.000000
vn 0.000000 -1.000000 -0.000000
vn 0.000000 -1.000000 -0.000000
vn 0.000000 -1.000000 -0.000000
vn 0.000000 -1.000000 -0.000000
vn 0.000000 -1.000000 -0.000000
vn 0.000000 -1.000000 -0.000000
vn 0.000000 -1.000000 -0.000000
vn 0.000000 -1.000000 -0.000000
vn -1.000000 0.000000 0.000000
vn -1.000000 0.000000 0.000000
vn -1.000000 0.000000 0.000000
vn -1.000000 0.000000 0.000000
vn -1.000000 0.000000 0.000000
vn -1.000000 0.000000 0.000000
vn -1.000000 0.000000 0.000000
vn -1.000000 0.000000 0.000000
vn -1.000000 0.000000 0.000000
vn -1.000000 0.000000 0.000000
vn -1.000000 0.000000 0.000000
vn -1.000000 0.000000 0.000000
vn -1.000000 0.000000 0.000000
vn -1.000000 0.000000 0.000000
vn 1.000000 0.000000 0.000000
vn 1.000000 0.000000 0.000000
vn 1.000000 0.000000 0.000000
vn 1.000000 0.000000 0.000000
vn 1.000000 0.000000 0.000000
vn 1.000000 0.000000 0.000000
vn 1.000000 0.000000 0.000000
vn 1.000000 0.000000 0.000000
vn 1.000000 0.000000 0.000000
vn 1.000000 0.000000 0.000000
vn 1.000000 0.000000 0.000000
vn 1.000000 0.000000 0.000000
vn 1.000000 0.000000 0.000000
vn 1.000000 0.000000 0.000000
vn 0.000000 1.000000 0.000000
vn 0.000000 1.000000 0.000000
vn 0.000000 1.000000 0.000000
vn 0.000000 1.000000 0.000000
vn 0.000000 1.000000 0.000000
vn 0.000000 1.000000 0.000000
vn 0.000000 1.000000 0.000000
vn 0.000000 1.000000 0.000000
vn 0.000000 1.000000 0.000000
vn 0.000000 1.000000 0.000000
vn 0.000000 1.000000 0.000000
vn 0.000000 1.000000 0.000000
vn 0.000000 1.000000 0.000000
vn 0.000000 1.000000 0.000000
s 1
g initialShadingGroup pCylinder3
f 1/1/1 2/2/2 3/3/3 4/4/4
f 5/5/5 1/6/1 4/7/4 6/8/6
s 2
f 7/9/7 2/10/8 1/11/9 8/12/10
s 1
f 2/2/2 9/13/11 10/14/12 3/3/3
s 3
f 11/15/13 4/16/14 3/17/15 12/18/16
s 1
f 13/19/17 5/5/5 6/8/6 14/20/18
s 2
f 8/12/10 1/11/9 5/21/19 15/22/20
s 3
f 16/23/21 6/24/22 4/16/14 11/15/13
s 2
f 9/25/23 2/10/8 7/9/7 17/26/24 18/27/25
s 1
f 9/13/11 19/28/26 20/29/27 10/14/12
s 3
f 3/17/15 10/30/28 21/31/29 22/32/30 12/18/16
s 1
f 23/33/31 13/19/17 14/20/18 24/34/32
s 2
f 15/22/20 5/21/19 13/35/33 25/36/34
s 3
f 26/37/35 14/38/36 6/24/22 16/23/21
s 2
f 27/39/37 19/40/38 9/25/23 18/27/25
s 1
f 19/28/26 28/41/39 29/42/40 20/29/27
s 3
f 21/31/29 10/30/28 20/43/41 30/44/42
s 1
f 31/45/43 23/33/31 24/34/32 32/46/44
s 2
f 25/36/34 13/35/33 23/47/45 33/48/46
s 3
f 34/49/47 24/50/48 14/38/36 26/37/35
s 2
f 35/51/49 28/52/50 19/40/38 27/39/37
s 1
f 28/41/39 36/53/51 37/54/52 29/42/40
s 3
f 30/44/42 20/43/41 29/55/53 38/56/54
s 1
f 39/57/55 31/45/43 32/46/44 40/58/56
s 2
f 23/47/45 31/59/57 41/60/58 42/61/59 33/48/46
s 3
f 32/62/60 24/50/48 34/49/47 43/63/61 44/64/62
s 2
f 45/65/63 36/66/64 28/52/50 35/51/49
s 1
f 36/53/51 46/67/65 47/68/66 37/54/52
s 3
f 38/56/54 29/55/53 37/69/67 48/70/68
s 1
f 49/71/69 39/57/55 40/58/56 50/72/70
s 2
f 41/60/58 31/59/57 39/73/71 51/74/72
s 3
f 52/75/73 40/76/74 32/62/60 44/64/62
s 2
f 53/77/75 46/78/76 36/66/64 45/65/63
s 1
f 46/67/65 54/79/77 55/80/78 47/68/66
s 3
f 48/70/68 37/69/67 47/81/79 56/82/80
s 1
f 57/83/81 49/71/69 50/72/70 58/84/82
s 2
f 51/74/72 39/73/71 49/85/83 59/86/84
s 3
f 60/87/85 50/88/86 40/76/74 52/75/73
s 2
f 54/89/87 46/78/76 53/77/75 61/90/88 62/91/89
s 1
f 54/79/77 63/92/90 64/93/91 55/80/78
s 3
f 47/81/79 55/94/92 65/95/93 66/96/94 56/82/80
s 1
f 67/97/95 57/83/81 58/84/82 68/98/96
s 2
f 59/86/84 49/85/83 57/99/97 69/100/98
s 3
f 70/101/99 58/102/100 50/88/86 60/87/85
s 2
f 71/103/101 63/104/102 54/89/87 62/91/89
s 1
f 63/92/90 72/105/103 73/106/104 64/93/91
s 3
f 65/95/93 55/94/92 64/107/105 74/108/106
s 1
f 75/109/107 67/97/95 68/98/96 76/110/108
s 2
f 69/100/98 57/99/97 67/111/109 77/112/110
s 3
f 78/113/111 68/114/112 58/102/100 70/101/99
s 2
f 79/115/113 72/116/114 63/104/102 71/103/101
s 1
f 72/105/103 80/117/115 81/118/116 73/106/104
s 3
f 74/108/106 64/107/105 73/119/117 82/120/118
s 1
f 80/117/115 75/109/107 76/110/108 81/118/116
s 2
f 67/111/109 75/121/119 83/122/120 84/123/121 77/112/110
s 3
f 76/124/122 68/114/112 78/113/111 85/125/123 86/126/124
s 2
f 87/127/125 80/128/126 72/116/114 79/115/113
s 3
f 82/120/118 73/119/117 81/129/127 88/130/128
s 2
f 83/122/120 75/121/119 80/128/126 87/127/125
s 3
f 88/130/128 81/129/127 76/124/122 86/126/124
s off
f 42/131/129 41/132/130 51/133/131 59/134/132 69/135/133 77/136/134 84/137/135 85/138/136 78/139/137 70/140/138 60/141/139 52/142/140 44/143/141 43/144/142
f 17/145/143 7/146/144 8/147/145 15/148/146 25/149/147 33/150/148 42/151/149 43/152/150 34/153/151 26/154/152 16/155/153 11/156/154 12/157/155 22/158/156
f 66/159/157 65/160/158 74/161/159 82/162/160 88/163/161 86/164/162 85/165/163 84/166/164 83/167/165 87/168/166 79/169/167 71/170/168 62/171/169 61/172/170
f 22/173/171 21/174/172 30/175/173 38/176/174 48/177/175 56/178/176 66/179/177 61/180/178 53/181/179 45/182/180 35/183/181 27/184/182 18/185/183 17/186/184
