# This file uses centimeters as units for non-parametric coordinates.

mtllib enemyDiver.mtl
g default
v 0.951057 -0.309017 -0.000000
v 0.809018 -0.587785 -0.000000
v 0.809018 -0.587786 -0.705111
v 0.951057 -0.309017 -0.705111
v 1.000000 0.000000 0.000000
v 1.000000 0.000000 -0.705111
v 0.456039 -0.337839 -0.000000
v 0.333180 -0.108256 -0.000000
v 0.587786 -0.809017 -0.000000
v 0.587786 -0.809017 -0.705111
v 0.333180 -0.108257 -0.838492
v 0.456039 -0.337839 -0.793730
v 0.951057 0.309017 0.000000
v 0.951057 0.309017 -0.705111
v 0.275247 0.000000 0.000000
v 0.275247 0.000000 -0.853906
v 0.253190 -0.337159 -0.000000
v 0.309017 -0.951057 -0.000000
v 0.309017 -0.951057 -0.705111
v 0.253189 -0.337159 -0.821980
v 0.809017 0.587785 0.000000
v 0.809017 0.587785 -0.705111
v 0.234476 0.076186 0.000000
v 0.234476 0.076186 -0.859799
v 0.113230 -0.337159 -0.000000
v 0.000000 -1.000000 -0.000000
v 0.000000 -1.000000 -0.705111
v 0.113230 -0.337159 -0.835188
v 0.587785 0.809017 0.000000
v 0.587785 0.809017 -0.705111
v 0.198190 0.143993 0.000000
v 0.198190 0.143993 -0.860121
v 0.000000 -0.337159 -0.000000
v -0.309017 -0.951057 -0.000000
v -0.309017 -0.951057 -0.705111
v 0.000000 -0.337159 -0.838870
v 0.309017 0.951057 0.000000
v 0.309017 0.951057 -0.705111
v 0.158501 0.218158 0.000000
v 0.158501 0.218158 -0.855053
v -0.113230 -0.337159 -0.000000
v -0.587785 -0.809017 -0.000000
v -0.587785 -0.809017 -0.705111
v -0.113230 -0.337159 -0.835188
v 0.000000 1.000000 0.000000
v -0.000000 1.000000 -0.705111
v 0.103984 0.320031 0.000000
v 0.103984 0.320031 -0.841330
v -0.253189 -0.337159 -0.000000
v -0.809017 -0.587785 -0.000000
v -0.809017 -0.587785 -0.705111
v -0.253189 -0.337159 -0.821980
v -0.309017 0.951057 0.000000
v -0.309017 0.951057 -0.705111
v 0.000000 0.514342 0.000000
v 0.000000 0.514342 -0.804819
v -0.000000 0.514342 -0.804819
v -0.456039 -0.337839 -0.000000
v -0.951057 -0.309017 -0.000000
v -0.951057 -0.309017 -0.705111
v -0.456039 -0.337839 -0.793730
v -0.587785 0.809017 0.000000
v -0.587785 0.809017 -0.705111
v -0.103984 0.320031 0.000000
v 0.000000 0.514342 0.000000
v -0.103984 0.320031 -0.841330
v -0.333180 -0.108256 -0.000000
v -1.000000 0.000000 0.000000
v -1.000000 0.000000 -0.705111
v -0.333180 -0.108257 -0.838492
v -0.809017 0.587786 0.000000
v -0.809017 0.587785 -0.705111
v -0.158501 0.218158 0.000000
v -0.158501 0.218158 -0.855053
v -0.275247 0.000000 0.000000
v -0.951057 0.309017 0.000000
v -0.951057 0.309017 -0.705111
v -0.275247 0.000000 -0.853906
v -0.198190 0.143993 0.000000
v -0.198190 0.143993 -0.860121
v -0.234476 0.076186 0.000000
v -0.234476 0.076186 -0.859799
vt 0.375000 0.312500
vt 0.387500 0.312500
vt 0.387500 0.688440
vt 0.375000 0.688440
vt 0.612500 0.312500
vt 0.625000 0.312500
vt 0.625000 0.688440
vt 0.612500 0.688440
vt 0.571256 0.100765
vt 0.626409 0.064408
vt 0.648603 0.107966
vt 0.552059 0.135274
vt 0.400000 0.312500
vt 0.400000 0.688440
vt 0.552059 0.856605
vt 0.648603 0.892034
vt 0.626409 0.935591
vt 0.571256 0.893839
vt 0.600000 0.312500
vt 0.600000 0.688440
vt 0.656250 0.156250
vt 0.543007 0.151720
vt 0.543007 0.839220
vt 0.656250 0.843750
vt 0.591842 0.029841
vt 0.539561 0.098241
vt 0.412500 0.312500
vt 0.412500 0.688440
vt 0.591841 0.970159
vt 0.539561 0.894643
vt 0.587500 0.312500
vt 0.587500 0.688440
vt 0.648603 0.204534
vt 0.536637 0.163445
vt 0.536637 0.827137
vt 0.648603 0.795466
vt 0.517692 0.097839
vt 0.548284 0.007647
vt 0.425000 0.312500
vt 0.425000 0.688440
vt 0.548284 0.992353
vt 0.517692 0.894241
vt 0.575000 0.312500
vt 0.575000 0.688440
vt 0.626409 0.248091
vt 0.530967 0.174030
vt 0.530967 0.816532
vt 0.626409 0.751908
vt 0.500000 0.097727
vt 0.500000 -0.000000
vt 0.437500 0.312500
vt 0.437500 0.688440
vt 0.500000 1.000000
vt 0.500000 0.894129
vt 0.562500 0.312500
vt 0.562500 0.688440
vt 0.591841 0.282659
vt 0.524766 0.185773
vt 0.524766 0.805098
vt 0.591842 0.717341
vt 0.482308 0.097839
vt 0.451716 0.007647
vt 0.450000 0.312500
vt 0.450000 0.688440
vt 0.451716 0.992353
vt 0.482308 0.894241
vt 0.550000 0.312500
vt 0.550000 0.688440
vt 0.548284 0.304853
vt 0.516248 0.202108
vt 0.516248 0.789598
vt 0.548284 0.695147
vt 0.460439 0.098241
vt 0.408159 0.029841
vt 0.462500 0.312500
vt 0.462500 0.688440
vt 0.408159 0.970159
vt 0.460439 0.894643
vt 0.537500 0.312500
vt 0.537500 0.688440
vt 0.500000 0.312500
vt 0.500000 0.233581
vt 0.500000 0.687500
vt 0.500000 0.760349
vt 0.500000 0.760349
vt 0.373591 0.064409
vt 0.428744 0.100765
vt 0.475000 0.312500
vt 0.475000 0.688440
vt 0.373591 0.935591
vt 0.428744 0.893839
vt 0.525000 0.312500
vt 0.525000 0.688440
vt 0.451716 0.304853
vt 0.483752 0.202108
vt 0.500000 0.233581
vt 0.483752 0.789598
vt 0.451716 0.695147
vt 0.447941 0.135274
vt 0.351397 0.107966
vt 0.487500 0.312500
vt 0.487500 0.688440
vt 0.351397 0.892034
vt 0.447941 0.856605
vt 0.512500 0.312500
vt 0.512500 0.688440
vt 0.408159 0.282659
vt 0.475234 0.185773
vt 0.475234 0.805098
vt 0.408159 0.717341
vt 0.456993 0.151720
vt 0.343750 0.156250
vt 0.500000 0.312500
vt 0.500000 0.688440
vt 0.343750 0.843750
vt 0.456993 0.839220
vt 0.373591 0.248091
vt 0.469033 0.174030
vt 0.469033 0.816532
vt 0.373591 0.751909
vt 0.463363 0.163445
vt 0.351397 0.204534
vt 0.351397 0.795466
vt 0.463363 0.827137
vt 0.625000 0.798860
vt 0.568543 0.794926
vt 0.530653 0.793230
vt 0.500000 0.792758
vt 0.469347 0.793230
vt 0.431457 0.794926
vt 0.375000 0.798861
vt 0.375000 0.900440
vt 0.431457 0.900440
vt 0.469347 0.900440
vt 0.500000 0.900440
vt 0.530653 0.900440
vt 0.568543 0.900440
vt 0.625000 0.900440
vt 0.723669 0.003085
vt 0.703926 0.069605
vt 0.694342 0.100972
vt 0.687551 0.123046
vt 0.681504 0.142693
vt 0.674913 0.164182
vt 0.665949 0.193699
vt 0.649340 0.250000
vt 0.649340 0.250000
vt 0.804307 0.250000
vt 0.817227 0.193699
vt 0.821767 0.164182
vt 0.823937 0.142693
vt 0.825024 0.123046
vt 0.825407 0.100972
vt 0.825221 0.069605
vt 0.826024 0.003085
vt 0.173976 0.003085
vt 0.174779 0.069605
vt 0.174593 0.100972
vt 0.174976 0.123046
vt 0.176063 0.142693
vt 0.178233 0.164182
vt 0.182773 0.193699
vt 0.195693 0.250000
vt 0.195693 0.250000
vt 0.350660 0.250000
vt 0.334051 0.193699
vt 0.325087 0.164182
vt 0.318496 0.142693
vt 0.312449 0.123046
vt 0.305658 0.100972
vt 0.296074 0.069605
vt 0.276331 0.003085
vn 0.951057 -0.309016 -0.000000
vn 0.809017 -0.587785 0.000000
vn 0.809017 -0.587785 0.000000
vn 0.951057 -0.309016 -0.000000
vn 1.000000 0.000001 -0.000000
vn 1.000000 0.000001 -0.000000
vn 0.000000 -0.000000 1.000000
vn 0.000000 -0.000000 1.000000
vn 0.000000 -0.000000 1.000000
vn 0.000000 -0.000000 1.000000
vn 0.587785 -0.809017 0.000000
vn 0.587785 -0.809017 0.000000
vn 0.196590 -0.045378 -0.979435
vn 0.191493 -0.060842 -0.979607
vn 0.161836 -0.117605 -0.979785
vn 0.162244 -0.117076 -0.979781
vn 0.951057 0.309017 -0.000000
vn 0.951057 0.309017 -0.000000
vn 0.000000 -0.000000 1.000000
vn 0.000000 -0.000000 1.000000
vn 0.201098 0.010610 -0.979514
vn 0.201109 0.000496 -0.979569
vn -0.000000 -0.000000 1.000000
vn -0.000000 -0.000000 1.000000
vn 0.309017 -0.951057 0.000000
vn 0.309017 -0.951057 0.000000
vn 0.114036 -0.162969 -0.980019
vn 0.104676 -0.169279 -0.979994
vn 0.809017 0.587785 -0.000000
vn 0.809017 0.587785 -0.000000
vn 0.000000 -0.000000 1.000000
vn 0.000000 -0.000000 1.000000
vn 0.190089 0.065764 -0.979562
vn 0.191227 0.062267 -0.979569
vn -0.000000 -0.000000 1.000000
vn -0.000000 -0.000000 1.000000
vn -0.000000 -1.000000 0.000000
vn -0.000000 -1.000000 0.000000
vn 0.060802 -0.188224 -0.980242
vn 0.054908 -0.190132 -0.980222
vn 0.587785 0.809017 -0.000000
vn 0.587785 0.809017 -0.000000
vn 0.000000 -0.000000 1.000000
vn 0.000000 -0.000000 1.000000
vn 0.164428 0.115830 -0.979565
vn 0.162758 0.118131 -0.979569
vn 0.000000 -0.000000 1.000000
vn -0.000000 -0.000000 1.000000
vn -0.309017 -0.951057 0.000000
vn -0.309017 -0.951056 0.000000
vn -0.000000 -0.197742 -0.980254
vn -0.000000 -0.197742 -0.980254
vn 0.309017 0.951056 -0.000000
vn 0.309017 0.951057 -0.000000
vn 0.000000 -0.000000 1.000000
vn 0.000000 -0.000000 1.000000
vn 0.126073 0.156975 -0.979523
vn 0.118554 0.162450 -0.979569
vn 0.000000 -0.000000 1.000000
vn 0.000000 -0.000000 1.000000
vn -0.587785 -0.809017 0.000000
vn -0.587785 -0.809017 0.000000
vn -0.060802 -0.188224 -0.980242
vn -0.054909 -0.190131 -0.980222
vn 0.000000 1.000000 -0.000000
vn 0.000000 1.000000 -0.000000
vn 0.000000 -0.000000 1.000000
vn 0.000000 -0.000000 1.000000
vn 0.078180 0.186027 -0.979429
vn 0.063583 0.190799 -0.979568
vn -0.000000 -0.000000 1.000000
vn -0.000000 -0.000000 1.000000
vn -0.809017 -0.587785 0.000000
vn -0.809017 -0.587785 0.000000
vn -0.114036 -0.162969 -0.980019
vn -0.104676 -0.169279 -0.979994
vn -0.309017 0.951057 -0.000000
vn -0.309017 0.951057 -0.000000
vn 0.000000 -0.000000 1.000000
vn 0.000000 -0.000000 1.000000
vn 0.000000 0.201109 -0.979569
vn 0.031837 0.201008 -0.979072
vn -0.008184 0.201103 -0.979536
vn 0.000000 -0.000000 1.000000
vn 0.000000 -0.000000 1.000000
vn -0.951057 -0.309017 0.000000
vn -0.951057 -0.309017 0.000000
vn -0.161836 -0.117605 -0.979785
vn -0.162244 -0.117076 -0.979781
vn -0.587785 0.809017 -0.000000
vn -0.587785 0.809017 -0.000000
vn 0.000000 -0.000000 1.000000
vn 0.000000 -0.000000 1.000000
vn 0.000000 -0.000000 1.000000
vn -0.078180 0.186027 -0.979429
vn -0.063583 0.190799 -0.979568
vn 0.000000 -0.000000 1.000000
vn 0.000000 -0.000000 1.000000
vn -1.000000 0.000000 0.000000
vn -1.000000 -0.000000 0.000000
vn -0.191493 -0.060843 -0.979607
vn -0.196590 -0.045378 -0.979435
vn -0.809017 0.587785 -0.000000
vn -0.809017 0.587785 -0.000000
vn 0.000000 -0.000000 1.000000
vn 0.000000 -0.000000 1.000000
vn -0.126073 0.156975 -0.979522
vn -0.118554 0.162450 -0.979569
vn 0.000000 -0.000000 1.000000
vn 0.000000 -0.000000 1.000000
vn -0.951057 0.309017 0.000000
vn -0.951056 0.309017 0.000000
vn -0.201109 0.000496 -0.979569
vn -0.201098 0.010609 -0.979514
vn -0.000000 -0.000000 1.000000
vn -0.000000 -0.000000 1.000000
vn -0.164428 0.115830 -0.979565
vn -0.162758 0.118131 -0.979569
vn -0.000000 -0.000000 1.000000
vn -0.000000 -0.000000 1.000000
vn -0.191227 0.062267 -0.979569
vn -0.190089 0.065764 -0.979562
vn -0.000000 1.000000 -0.000000
vn -0.000000 1.000000 -0.000000
vn -0.000000 1.000000 -0.000000
vn -0.000000 1.000000 -0.000000
vn -0.000000 1.000000 -0.000000
vn -0.000000 1.000000 -0.000000
vn -0.000000 1.000000 -0.000000
vn -0.000000 1.000000 -0.000000
vn -0.000000 1.000000 -0.000000
vn -0.000000 1.000000 -0.000000
vn -0.000000 1.000000 -0.000000
vn -0.000000 1.000000 -0.000000
vn -0.000000 1.000000 -0.000000
vn -0.000000 1.000000 -0.000000
vn -0.881689 -0.471830 -0.000000
vn -0.881689 -0.471830 -0.000000
vn -0.881689 -0.471830 -0.000000
vn -0.881689 -0.471830 -0.000000
vn -0.881689 -0.471830 -0.000000
vn -0.881689 -0.471830 -0.000000
vn -0.881689 -0.471830 -0.000000
vn -0.881689 -0.471830 -0.000000
vn -0.881689 -0.471830 -0.000000
vn -0.881689 -0.471830 -0.000000
vn -0.881689 -0.471830 -0.000000
vn -0.881689 -0.471830 -0.000000
vn -0.881689 -0.471830 -0.000000
vn -0.881689 -0.471830 -0.000000
vn -0.881689 -0.471830 -0.000000
vn -0.881689 -0.471830 -0.000000
vn -0.881689 -0.471830 -0.000000
vn 0.881689 -0.471830 -0.000000
vn 0.881689 -0.471830 -0.000000
vn 0.881689 -0.471830 -0.000000
vn 0.881689 -0.471830 -0.000000
vn 0.881689 -0.471830 -0.000000
vn 0.881689 -0.471830 -0.000000
vn 0.881689 -0.471830 -0.000000
vn 0.881689 -0.471830 -0.000000
vn 0.881689 -0.471830 -0.000000
vn 0.881689 -0.471830 -0.000000
vn 0.881689 -0.471830 -0.000000
vn 0.881689 -0.471830 -0.000000
vn 0.881689 -0.471830 -0.000000
vn 0.881689 -0.471830 -0.000000
vn 0.881689 -0.471830 -0.000000
vn 0.881689 -0.471830 -0.000000
vn 0.881689 -0.471830 -0.000000
s 1
g initialShadingGroup pCylinder3
f 1/1/1 2/2/2 3/3/3 4/4/4
f 5/5/5 1/6/1 4/7/4 6/8/6
s 2
f 7/9/7 2/10/8 1/11/9 8/12/10
s 1
f 2/2/2 9/13/11 10/14/12 3/3/3
s 3
f 11/15/13 4/16/14 3/17/15 12/18/16
s 1
f 13/19/17 5/5/5 6/8/6 14/20/18
s 2
f 8/12/10 1/11/9 5/21/19 15/22/20
s 3
f 16/23/21 6/24/22 4/16/14 11/15/13
s 2
f 9/25/23 2/10/8 7/9/7 17/26/24
s 1
f 9/13/11 18/27/25 19/28/26 10/14/12
s 3
f 3/17/15 10/29/27 20/30/28 12/18/16
s 1
f 21/31/29 13/19/17 14/20/18 22/32/30
s 2
f 15/22/20 5/21/19 13/33/31 23/34/32
s 3
f 24/35/33 14/36/34 6/24/22 16/23/21
s 2
f 25/37/35 18/38/36 9/25/23 17/26/24
s 1
f 18/27/25 26/39/37 27/40/38 19/28/26
s 3
f 20/30/28 10/29/27 19/41/39 28/42/40
s 1
f 29/43/41 21/31/29 22/32/30 30/44/42
s 2
f 23/34/32 13/33/31 21/45/43 31/46/44
s 3
f 32/47/45 22/48/46 14/36/34 24/35/33
s 2
f 33/49/47 26/50/48 18/38/36 25/37/35
s 1
f 26/39/37 34/51/49 35/52/50 27/40/38
s 3
f 28/42/40 19/41/39 27/53/51 36/54/52
s 1
f 37/55/53 29/43/41 30/44/42 38/56/54
s 2
f 31/46/44 21/45/43 29/57/55 39/58/56
s 3
f 40/59/57 30/60/58 22/48/46 32/47/45
s 2
f 41/61/59 34/62/60 26/50/48 33/49/47
s 1
f 34/51/49 42/63/61 43/64/62 35/52/50
s 3
f 36/54/52 27/53/51 35/65/63 44/66/64
s 1
f 45/67/65 37/55/53 38/56/54 46/68/66
s 2
f 39/58/56 29/57/55 37/69/67 47/70/68
s 3
f 48/71/69 38/72/70 30/60/58 40/59/57
s 2
f 49/73/71 42/74/72 34/62/60 41/61/59
s 1
f 42/63/61 50/75/73 51/76/74 43/64/62
s 3
f 44/66/64 35/65/63 43/77/75 52/78/76
s 1
f 53/79/77 45/67/65 46/68/66 54/80/78
s 2
f 47/70/68 37/69/67 45/81/79 55/82/80
s 3
f 46/83/81 38/72/70 48/71/69 56/84/82 57/85/83
s 2
f 50/86/84 42/74/72 49/73/71 58/87/85
s 1
f 50/75/73 59/88/86 60/89/87 51/76/74
s 3
f 43/77/75 51/90/88 61/91/89 52/78/76
s 1
f 62/92/90 53/79/77 54/80/78 63/93/91
s 2
f 45/81/79 53/94/92 64/95/93 65/96/94 55/82/80
s 3
f 66/97/95 54/98/96 46/83/81 57/85/83
s 2
f 67/99/97 59/100/98 50/86/84 58/87/85
s 1
f 59/88/86 68/101/99 69/102/100 60/89/87
s 3
f 61/91/89 51/90/88 60/103/101 70/104/102
s 1
f 71/105/103 62/92/90 63/93/91 72/106/104
s 2
f 64/95/93 53/94/92 62/107/105 73/108/106
s 3
f 74/109/107 63/110/108 54/98/96 66/97/95
s 2
f 75/111/109 68/112/110 59/100/98 67/99/97
s 1
f 68/101/99 76/113/111 77/114/112 69/102/100
s 3
f 70/104/102 60/103/101 69/115/113 78/116/114
s 1
f 76/113/111 71/105/103 72/106/104 77/114/112
s 2
f 73/108/106 62/107/105 71/117/115 79/118/116
s 3
f 80/119/117 72/120/118 63/110/108 74/109/107
s 2
f 81/121/119 76/122/120 68/112/110 75/111/109
s 3
f 78/116/114 69/115/113 77/123/121 82/124/122
s 2
f 79/118/116 71/117/115 76/122/120 81/121/119
s 3
f 82/124/122 77/123/121 72/120/118 80/119/117
s off
f 12/125/123 20/126/124 28/127/125 36/128/126 44/129/127 52/130/128 61/131/129 58/132/130 49/133/131 41/134/132 33/135/133 25/136/134 17/137/135 7/138/136
f 7/139/137 8/140/138 15/141/139 23/142/140 31/143/141 39/144/142 47/145/143 55/146/144 65/147/145 56/148/146 48/149/147 40/150/148 32/151/149 24/152/150 16/153/151 11/154/152 12/155/153
f 61/156/154 70/157/155 78/158/156 82/159/157 80/160/158 74/161/159 66/162/160 57/163/161 56/164/162 65/165/163 64/166/164 73/167/165 79/168/166 81/169/167 75/170/168 67/171/169 58/172/170
