# This file uses centimeters as units for non-parametric coordinates.

mtllib puck01.mtl
g default
v 0.448657 0.145778 -1.639713
v 0.381650 0.277285 -1.639713
v 0.277285 0.381650 -1.639713
v 0.145777 0.448657 -1.639713
v -0.000000 0.471746 -1.639713
v -0.145778 0.448657 -1.639713
v -0.277285 0.381650 -1.639713
v -0.381650 0.277285 -1.639713
v -0.448657 0.145777 -1.639713
v -0.471745 0.000000 -1.639713
v -0.448657 -0.145777 -1.639713
v -0.381650 -0.277285 -1.639713
v -0.277285 -0.381650 -1.639713
v -0.145777 -0.448656 -1.639713
v -0.000000 -0.471745 -1.639713
v 0.145777 -0.448656 -1.639713
v 0.277285 -0.381650 -1.639713
v 0.381650 -0.277285 -1.639713
v 0.448656 -0.145777 -1.639713
v 0.471745 0.000000 -1.639713
v 2.082762 0.676731 -1.639713
v 1.771704 1.287218 -1.639713
v 1.287218 1.771704 -1.639713
v 0.676731 2.082762 -1.639713
v 0.000000 2.189946 -1.639713
v -0.676731 2.082762 -1.639713
v -1.287218 1.771703 -1.639713
v -1.771703 1.287218 -1.639713
v -2.082762 0.676730 -1.639713
v -2.189945 -0.000000 -1.639713
v -2.082762 -0.676730 -1.639713
v -1.771703 -1.287218 -1.639713
v -1.287218 -1.771703 -1.639713
v -0.676730 -2.082762 -1.639713
v -0.000000 -2.189945 -1.639713
v 0.676730 -2.082761 -1.639713
v 1.287217 -1.771703 -1.639713
v 1.771703 -1.287217 -1.639713
v 2.082761 -0.676730 -1.639713
v 2.189945 -0.000000 -1.639713
v 0.538293 0.174902 0.060287
v 0.457900 0.332683 0.060287
v 1.696751 1.232761 -0.136706
v 1.994649 0.648101 -0.136706
v 0.332683 0.457899 0.060287
v 1.232761 1.696750 -0.136706
v 0.174902 0.538293 0.060287
v 0.648100 1.994649 -0.136706
v -0.000000 0.565995 0.060287
v -0.000000 2.097298 -0.136706
v -0.174903 0.538293 0.060287
v -0.648101 1.994649 -0.136706
v -0.332683 0.457899 0.060287
v -1.232761 1.696750 -0.136706
v -0.457899 0.332683 0.060287
v -1.696749 1.232761 -0.136706
v -0.538293 0.174902 0.060287
v -1.994649 0.648101 -0.136706
v -0.565995 0.000000 0.060287
v -2.097298 0.000000 -0.136706
v -0.538293 -0.174902 0.060287
v -1.994649 -0.648101 -0.136706
v -0.457900 -0.332683 0.060287
v -1.696749 -1.232761 -0.136706
v -0.332683 -0.457899 0.060287
v -1.232761 -1.696749 -0.136706
v -0.174902 -0.538293 0.060287
v -0.648100 -1.994648 -0.136706
v 0.000001 -0.565994 0.060287
v -0.000000 -2.097297 -0.136706
v 0.174902 -0.538293 0.060287
v 0.648101 -1.994648 -0.136706
v 0.332683 -0.457899 0.060287
v 1.232760 -1.696749 -0.136706
v 0.457899 -0.332683 0.060287
v 1.696749 -1.232761 -0.136706
v 0.538293 -0.174902 0.060287
v 1.994648 -0.648100 -0.136706
v 0.565994 0.000000 0.060287
v 2.097297 0.000000 -0.136706
vt 0.574301 0.132108
vt 0.563205 0.110329
vt 0.545921 0.093046
vt 0.524142 0.081949
vt 0.500000 0.078125
vt 0.475858 0.081949
vt 0.454079 0.093046
vt 0.436796 0.110329
vt 0.425699 0.132108
vt 0.421875 0.156250
vt 0.425699 0.180392
vt 0.436796 0.202171
vt 0.454079 0.219454
vt 0.475858 0.230551
vt 0.500000 0.234375
vt 0.524142 0.230551
vt 0.545921 0.219454
vt 0.563204 0.202171
vt 0.574301 0.180392
vt 0.578125 0.156250
vt 0.648603 0.107966
vt 0.626409 0.064408
vt 0.591842 0.029841
vt 0.548284 0.007647
vt 0.500000 -0.000000
vt 0.451716 0.007647
vt 0.408159 0.029841
vt 0.373591 0.064409
vt 0.351397 0.107966
vt 0.343750 0.156250
vt 0.351397 0.204534
vt 0.373591 0.248091
vt 0.408159 0.282659
vt 0.451716 0.304853
vt 0.500000 0.312500
vt 0.548284 0.304853
vt 0.591841 0.282659
vt 0.626409 0.248091
vt 0.648603 0.204534
vt 0.656250 0.156250
vt 0.574301 0.132108
vt 0.563205 0.110329
vt 0.626409 0.064408
vt 0.648603 0.107966
vt 0.545921 0.093046
vt 0.591842 0.029841
vt 0.524142 0.081949
vt 0.548284 0.007647
vt 0.500000 0.078125
vt 0.500000 -0.000000
vt 0.475858 0.081949
vt 0.451716 0.007647
vt 0.454079 0.093046
vt 0.408159 0.029841
vt 0.436796 0.110329
vt 0.373591 0.064409
vt 0.425699 0.132108
vt 0.351397 0.107966
vt 0.421875 0.156250
vt 0.343750 0.156250
vt 0.425699 0.180392
vt 0.351397 0.204534
vt 0.436796 0.202171
vt 0.373591 0.248091
vt 0.454079 0.219454
vt 0.408159 0.282659
vt 0.475858 0.230551
vt 0.451716 0.304853
vt 0.500000 0.234375
vt 0.500000 0.312500
vt 0.524142 0.230551
vt 0.548284 0.304853
vt 0.545921 0.219454
vt 0.591841 0.282659
vt 0.563204 0.202171
vt 0.626409 0.248091
vt 0.574301 0.180392
vt 0.648603 0.204534
vt 0.578125 0.156250
vt 0.656250 0.156250
vt 0.574301 0.132108
vt 0.563205 0.110329
vt 0.626409 0.064408
vt 0.648603 0.107966
vt 0.545921 0.093046
vt 0.591842 0.029841
vt 0.524142 0.081949
vt 0.548284 0.007647
vt 0.500000 0.078125
vt 0.500000 -0.000000
vt 0.475858 0.081949
vt 0.451716 0.007647
vt 0.454079 0.093046
vt 0.408159 0.029841
vt 0.436796 0.110329
vt 0.373591 0.064409
vt 0.425699 0.132108
vt 0.351397 0.107966
vt 0.421875 0.156250
vt 0.343750 0.156250
vt 0.425699 0.180392
vt 0.351397 0.204534
vt 0.436796 0.202171
vt 0.373591 0.248091
vt 0.454079 0.219454
vt 0.408159 0.282659
vt 0.475858 0.230551
vt 0.451716 0.304853
vt 0.500000 0.234375
vt 0.500000 0.312500
vt 0.524142 0.230551
vt 0.548284 0.304853
vt 0.545921 0.219454
vt 0.591841 0.282659
vt 0.563204 0.202171
vt 0.626409 0.248091
vt 0.574301 0.180392
vt 0.648603 0.204534
vt 0.578125 0.156250
vt 0.656250 0.156250
vn 0.121348 0.039428 0.991827
vn 0.121348 0.039428 0.991827
vn 0.103224 0.074997 0.991827
vn 0.103224 0.074997 0.991827
vn 0.074997 0.103224 0.991827
vn 0.074997 0.103224 0.991827
vn 0.039428 0.121348 0.991827
vn 0.039428 0.121348 0.991827
vn 0.000000 0.127592 0.991827
vn 0.000000 0.127592 0.991827
vn -0.039428 0.121348 0.991827
vn -0.039428 0.121348 0.991827
vn -0.074997 0.103224 0.991827
vn -0.074997 0.103224 0.991827
vn -0.103225 0.074997 0.991827
vn -0.103224 0.074997 0.991827
vn -0.121348 0.039428 0.991827
vn -0.121348 0.039428 0.991827
vn -0.127592 0.000000 0.991827
vn -0.127592 0.000000 0.991827
vn -0.121348 -0.039428 0.991827
vn -0.121348 -0.039428 0.991827
vn -0.103224 -0.074997 0.991827
vn -0.103224 -0.074997 0.991827
vn -0.074997 -0.103225 0.991827
vn -0.074997 -0.103225 0.991827
vn -0.039428 -0.121348 0.991827
vn -0.039428 -0.121348 0.991827
vn 0.000000 -0.127592 0.991827
vn 0.000000 -0.127592 0.991827
vn 0.039428 -0.121348 0.991827
vn 0.039428 -0.121348 0.991827
vn 0.074997 -0.103225 0.991827
vn 0.074997 -0.103225 0.991827
vn 0.103224 -0.074997 0.991827
vn 0.103224 -0.074997 0.991827
vn 0.121348 -0.039428 0.991827
vn 0.121348 -0.039428 0.991827
vn 0.127592 -0.000000 0.991827
vn 0.127592 -0.000000 0.991827
vn -0.000000 0.000000 -1.000000
vn -0.000000 0.000000 -1.000000
vn -0.000000 0.000000 -1.000000
vn -0.000000 0.000000 -1.000000
vn -0.000000 0.000000 -1.000000
vn -0.000000 0.000000 -1.000000
vn 0.000000 0.000000 -1.000000
vn 0.000000 0.000000 -1.000000
vn 0.000000 0.000000 -1.000000
vn 0.000000 0.000000 -1.000000
vn 0.000000 0.000000 -1.000000
vn 0.000000 0.000000 -1.000000
vn 0.000000 0.000000 -1.000000
vn 0.000000 0.000000 -1.000000
vn 0.000000 0.000000 -1.000000
vn 0.000000 0.000000 -1.000000
vn 0.000000 0.000000 -1.000000
vn 0.000000 0.000000 -1.000000
vn 0.000000 0.000000 -1.000000
vn 0.000000 0.000000 -1.000000
vn 0.000000 0.000000 -1.000000
vn 0.000000 0.000000 -1.000000
vn -0.000000 0.000000 -1.000000
vn -0.000000 0.000000 -1.000000
vn 0.000000 0.000000 -1.000000
vn 0.000000 0.000000 -1.000000
vn 0.000000 0.000000 -1.000000
vn 0.000000 0.000000 -1.000000
vn 0.000000 0.000000 -1.000000
vn 0.000000 0.000000 -1.000000
vn 0.000000 0.000000 -1.000000
vn 0.000000 0.000000 -1.000000
vn 0.000000 0.000000 -1.000000
vn -0.000000 0.000000 -1.000000
vn -0.000000 0.000000 -1.000000
vn -0.000000 0.000000 -1.000000
vn 0.000000 0.000000 -1.000000
vn 0.000000 0.000000 -1.000000
vn -0.000000 0.000000 -1.000000
vn -0.000000 0.000000 -1.000000
vn -0.949599 -0.308541 0.055356
vn -0.949599 -0.308541 0.055356
vn -0.807776 -0.586885 0.055356
vn -0.807776 -0.586885 0.055356
vn 0.807485 0.586672 0.061525
vn 0.807485 0.586672 0.061525
vn 0.949255 0.308431 0.061525
vn 0.949255 0.308431 0.061525
vn -0.586884 -0.807777 0.055356
vn -0.586884 -0.807777 0.055356
vn 0.586671 0.807485 0.061525
vn 0.586671 0.807485 0.061525
vn -0.308543 -0.949598 0.055356
vn -0.308543 -0.949598 0.055356
vn 0.308431 0.949255 0.061525
vn 0.308431 0.949255 0.061525
vn 0.000000 -0.998467 0.055356
vn 0.000000 -0.998467 0.055356
vn 0.000000 0.998106 0.061525
vn 0.000000 0.998106 0.061525
vn 0.308543 -0.949598 0.055356
vn 0.308543 -0.949598 0.055356
vn -0.308432 0.949255 0.061525
vn -0.308431 0.949255 0.061525
vn 0.586885 -0.807776 0.055356
vn 0.586885 -0.807776 0.055356
vn -0.586672 0.807484 0.061525
vn -0.586672 0.807484 0.061525
vn 0.807777 -0.586884 0.055356
vn 0.807777 -0.586884 0.055356
vn -0.807485 0.586671 0.061525
vn -0.807485 0.586671 0.061525
vn 0.949598 -0.308543 0.055356
vn 0.949598 -0.308543 0.055356
vn -0.949255 0.308431 0.061525
vn -0.949255 0.308431 0.061525
vn 0.998467 -0.000000 0.055356
vn 0.998467 -0.000000 0.055356
vn -0.998106 0.000000 0.061525
vn -0.998106 0.000000 0.061525
vn 0.949598 0.308543 0.055356
vn 0.949598 0.308543 0.055356
vn -0.949255 -0.308431 0.061525
vn -0.949255 -0.308431 0.061525
vn 0.807776 0.586885 0.055356
vn 0.807776 0.586885 0.055356
vn -0.807484 -0.586672 0.061525
vn -0.807484 -0.586672 0.061525
vn 0.586884 0.807777 0.055355
vn 0.586884 0.807777 0.055355
vn -0.586672 -0.807485 0.061525
vn -0.586672 -0.807485 0.061525
vn 0.308543 0.949598 0.055356
vn 0.308543 0.949598 0.055356
vn -0.308431 -0.949255 0.061525
vn -0.308431 -0.949255 0.061525
vn -0.000000 0.998467 0.055356
vn 0.000000 0.998467 0.055356
vn 0.000000 -0.998106 0.061525
vn 0.000000 -0.998106 0.061525
vn -0.308543 0.949598 0.055356
vn -0.308543 0.949598 0.055356
vn 0.308431 -0.949255 0.061525
vn 0.308432 -0.949255 0.061525
vn -0.586884 0.807777 0.055356
vn -0.586884 0.807777 0.055356
vn 0.586672 -0.807484 0.061525
vn 0.586672 -0.807484 0.061525
vn -0.807776 0.586884 0.055356
vn -0.807776 0.586884 0.055356
vn 0.807484 -0.586672 0.061525
vn 0.807484 -0.586672 0.061525
vn -0.949599 0.308542 0.055356
vn -0.949599 0.308542 0.055356
vn 0.949255 -0.308432 0.061525
vn 0.949255 -0.308432 0.061525
vn -0.998467 0.000001 0.055356
vn -0.998467 0.000001 0.055356
vn 0.998106 -0.000001 0.061525
vn 0.998106 -0.000001 0.061525
s 1
g initialShadingGroup pCylinder2
f 41/81/1 44/84/2 43/83/3 42/82/4
f 42/82/4 43/83/3 46/86/5 45/85/6
f 45/85/6 46/86/5 48/88/7 47/87/8
f 47/87/8 48/88/7 50/90/9 49/89/10
f 49/89/10 50/90/9 52/92/11 51/91/12
f 51/91/12 52/92/11 54/94/13 53/93/14
f 53/93/14 54/94/13 56/96/15 55/95/16
f 55/95/16 56/96/15 58/98/17 57/97/18
f 57/97/18 58/98/17 60/100/19 59/99/20
f 59/99/20 60/100/19 62/102/21 61/101/22
f 61/101/22 62/102/21 64/104/23 63/103/24
f 63/103/24 64/104/23 66/106/25 65/105/26
f 65/105/26 66/106/25 68/108/27 67/107/28
f 67/107/28 68/108/27 70/110/29 69/109/30
f 69/109/30 70/110/29 72/112/31 71/111/32
f 71/111/32 72/112/31 74/114/33 73/113/34
f 73/113/34 74/114/33 76/116/35 75/115/36
f 75/115/36 76/116/35 78/118/37 77/117/38
f 77/117/38 78/118/37 80/120/39 79/119/40
f 79/119/40 80/120/39 44/84/2 41/81/1
s 2
f 1/41/41 2/42/42 22/43/43 21/44/44
f 2/42/42 3/45/45 23/46/46 22/43/43
f 3/45/45 4/47/47 24/48/48 23/46/46
f 4/47/47 5/49/49 25/50/50 24/48/48
f 5/49/49 6/51/51 26/52/52 25/50/50
f 6/51/51 7/53/53 27/54/54 26/52/52
f 7/53/53 8/55/55 28/56/56 27/54/54
f 8/55/55 9/57/57 29/58/58 28/56/56
f 9/57/57 10/59/59 30/60/60 29/58/58
f 10/59/59 11/61/61 31/62/62 30/60/60
f 11/61/61 12/63/63 32/64/64 31/62/62
f 12/63/63 13/65/65 33/66/66 32/64/64
f 13/65/65 14/67/67 34/68/68 33/66/66
f 14/67/67 15/69/69 35/70/70 34/68/68
f 15/69/69 16/71/71 36/72/72 35/70/70
f 16/71/71 17/73/73 37/74/74 36/72/72
f 17/73/73 18/75/75 38/76/76 37/74/74
f 18/75/75 19/77/77 39/78/78 38/76/76
f 19/77/77 20/79/79 40/80/80 39/78/78
f 20/79/79 1/41/41 21/44/44 40/80/80
s 3
f 1/1/81 41/81/82 42/82/83 2/2/84
s 4
f 22/22/85 43/83/86 44/84/87 21/21/88
s 3
f 2/2/84 42/82/83 45/85/89 3/3/90
s 4
f 23/23/91 46/86/92 43/83/86 22/22/85
s 3
f 3/3/90 45/85/89 47/87/93 4/4/94
s 4
f 24/24/95 48/88/96 46/86/92 23/23/91
s 3
f 4/4/94 47/87/93 49/89/97 5/5/98
s 4
f 25/25/99 50/90/100 48/88/96 24/24/95
s 3
f 5/5/98 49/89/97 51/91/101 6/6/102
s 4
f 26/26/103 52/92/104 50/90/100 25/25/99
s 3
f 6/6/102 51/91/101 53/93/105 7/7/106
s 4
f 27/27/107 54/94/108 52/92/104 26/26/103
s 3
f 7/7/106 53/93/105 55/95/109 8/8/110
s 4
f 28/28/111 56/96/112 54/94/108 27/27/107
s 3
f 8/8/110 55/95/109 57/97/113 9/9/114
s 4
f 29/29/115 58/98/116 56/96/112 28/28/111
s 3
f 9/9/114 57/97/113 59/99/117 10/10/118
s 4
f 30/30/119 60/100/120 58/98/116 29/29/115
s 3
f 10/10/118 59/99/117 61/101/121 11/11/122
s 4
f 31/31/123 62/102/124 60/100/120 30/30/119
s 3
f 11/11/122 61/101/121 63/103/125 12/12/126
s 4
f 32/32/127 64/104/128 62/102/124 31/31/123
s 3
f 12/12/126 63/103/125 65/105/129 13/13/130
s 4
f 33/33/131 66/106/132 64/104/128 32/32/127
s 3
f 13/13/130 65/105/129 67/107/133 14/14/134
s 4
f 34/34/135 68/108/136 66/106/132 33/33/131
s 3
f 14/14/134 67/107/133 69/109/137 15/15/138
s 4
f 35/35/139 70/110/140 68/108/136 34/34/135
s 3
f 15/15/138 69/109/137 71/111/141 16/16/142
s 4
f 36/36/143 72/112/144 70/110/140 35/35/139
s 3
f 16/16/142 71/111/141 73/113/145 17/17/146
s 4
f 37/37/147 74/114/148 72/112/144 36/36/143
s 3
f 17/17/146 73/113/145 75/115/149 18/18/150
s 4
f 38/38/151 76/116/152 74/114/148 37/37/147
s 3
f 18/18/150 75/115/149 77/117/153 19/19/154
s 4
f 39/39/155 78/118/156 76/116/152 38/38/151
s 3
f 19/19/154 77/117/153 79/119/157 20/20/158
s 4
f 40/40/159 80/120/160 78/118/156 39/39/155
s 3
f 20/20/158 79/119/157 41/81/82 1/1/81
s 4
f 21/21/88 44/84/87 80/120/160 40/40/159
