# This file uses centimeters as units for non-parametric coordinates.

mtllib TableTop.mtl
g default
v 4.000000 -0.045852 2.250000
v 4.000000 -0.045852 -2.250000
v -4.000000 -0.045852 -2.250000
v -4.000000 -0.045852 2.250000
v -2.190167 -0.239664 -1.602644
v -1.918766 -0.239664 -1.602645
v -1.684545 -0.239664 -1.506315
v -1.549064 -0.239664 -1.267859
v -1.549064 -0.239664 1.267859
v -1.684545 -0.239664 1.506315
v -1.918912 -0.239664 1.602644
v -2.190167 -0.239664 1.602644
v -2.424828 -0.239664 1.506315
v -2.560309 -0.239664 1.267859
v -2.560309 -0.239664 -1.267859
v -2.424828 -0.239664 -1.506315
v -2.190167 -0.239664 -1.602644
v -1.549064 -0.239664 -1.267859
v -1.549064 -0.239664 1.267859
v -1.684545 -0.239664 1.506315
v -2.190167 -0.239664 1.602644
v -2.424828 -0.239664 1.506315
v -2.560309 -0.239664 1.267859
v -2.560309 -0.239664 -1.267859
v -2.424828 -0.239664 -1.506315
v -1.918324 -0.239664 -1.506315
v -1.918323 -0.239664 -1.267859
v -1.918333 -0.239664 1.267859
v -1.918324 -0.239664 1.506315
v -2.189643 -0.239664 1.506315
v -2.189644 -0.239664 1.267859
v -2.189644 -0.239664 -1.267859
v -2.189643 -0.239664 -1.506315
v -2.195313 -0.060073 -1.624761
v -2.199713 -0.045852 -1.648927
v -2.190128 -0.094297 -1.601020
v -1.914043 -0.060074 -1.624761
v -1.909660 -0.045852 -1.648927
v -1.919190 -0.094297 -1.601020
v -1.668159 -0.060065 -1.525032
v -1.650701 -0.045852 -1.542767
v -1.684604 -0.094298 -1.504852
v -1.526012 -0.060049 -1.277826
v -1.500615 -0.045852 -1.278963
v -1.549064 -0.094300 -1.266614
v -1.526012 -0.060049 1.277825
v -1.500615 -0.045852 1.278963
v -1.549064 -0.094300 1.266614
v -1.668158 -0.060065 1.525029
v -1.650701 -0.045852 1.542767
v -1.684598 -0.094298 1.504842
v -1.914049 -0.060074 1.624761
v -1.909660 -0.045852 1.648927
v -1.919208 -0.094297 1.601020
v -2.195313 -0.060073 1.624760
v -2.199713 -0.045852 1.648927
v -2.190128 -0.094297 1.601020
v -2.441218 -0.060065 1.525023
v -2.458672 -0.045852 1.542767
v -2.424786 -0.094298 1.504822
v -2.583360 -0.060049 1.277825
v -2.608757 -0.045852 1.278963
v -2.560309 -0.094300 1.266614
v -2.583360 -0.060049 -1.277825
v -2.608757 -0.045852 -1.278963
v -2.560309 -0.094300 -1.266614
v -2.441218 -0.060065 -1.525023
v -2.458672 -0.045852 -1.542767
v -2.424786 -0.094298 -1.504822
vt 0.260154 0.856143
vt 0.226229 0.856143
vt 0.226229 0.856143
vt 0.306367 0.781746
vt 0.289432 0.834737
vt 0.306367 0.781746
vt 0.306367 0.218254
vt 0.306367 0.218254
vt 0.289432 0.165263
vt 0.289432 0.165263
vt 0.260136 0.143857
vt 0.226229 0.143857
vt 0.226229 0.143857
vt 0.196897 0.165263
vt 0.196897 0.165263
vt 0.179961 0.218254
vt 0.179961 0.218254
vt 0.179961 0.781746
vt 0.179961 0.781746
vt 0.196897 0.834737
vt 0.196897 0.834737
vt 0.260209 0.834737
vt 0.260210 0.781746
vt 0.260208 0.218254
vt 0.260209 0.165263
vt 0.226295 0.165263
vt 0.226295 0.218254
vt 0.226295 0.781746
vt 0.226295 0.834737
vt 0.225036 0.866428
vt 0.225586 0.861058
vt 0.260745 0.861058
vt 0.261293 0.866428
vt 0.226234 0.855782
vt 0.260101 0.855782
vt 0.194848 0.838894
vt 0.196902 0.834405
vt 0.192666 0.842837
vt 0.291480 0.838896
vt 0.293662 0.842837
vt 0.289425 0.834412
vt 0.309248 0.783961
vt 0.312423 0.784214
vt 0.306367 0.781470
vt 0.309248 0.216039
vt 0.312423 0.215786
vt 0.306367 0.218530
vt 0.291480 0.161105
vt 0.293662 0.157163
vt 0.289425 0.165591
vt 0.260744 0.138942
vt 0.261293 0.133572
vt 0.260099 0.144218
vt 0.225586 0.138942
vt 0.225036 0.133572
vt 0.226234 0.144218
vt 0.194848 0.161106
vt 0.192666 0.157163
vt 0.196902 0.165595
vt 0.177080 0.216039
vt 0.173905 0.215786
vt 0.179961 0.218530
vt 0.177080 0.783961
vt 0.173905 0.784214
vt 0.179961 0.781470
vt 1.000000 1.000000
vt 0.000000 1.000000
vt 0.000000 0.000000
vt 1.000000 0.000000
vn 0.000000 0.000000 0.000000
vn 0.000000 0.000000 0.000000
vn 0.000000 0.000000 0.000000
vn 0.000000 0.000000 0.000000
vn 0.000000 0.000000 0.000000
vn 0.000000 0.000000 0.000000
vn 0.000000 0.000000 0.000000
vn 0.000000 0.000000 0.000000
vn 0.000000 0.000000 0.000000
vn 0.000000 0.000000 0.000000
vn 0.000000 0.000000 0.000000
vn 0.000000 0.000000 0.000000
vn 0.000000 0.000000 0.000000
vn 0.000000 0.000000 0.000000
vn 0.000000 0.000000 0.000000
vn 0.000000 0.000000 0.000000
vn 0.000000 0.000000 0.000000
vn 0.000000 0.000000 0.000000
vn 0.000000 0.000000 0.000000
vn 0.000000 0.000000 0.000000
vn 0.000000 0.000000 0.000000
vn 0.000000 0.000000 0.000000
vn 0.000000 0.000000 0.000000
vn 0.000000 0.000000 0.000000
vn 0.000000 0.000000 0.000000
vn 0.000000 0.000000 0.000000
vn 0.000000 0.000000 0.000000
vn 0.000000 0.000000 0.000000
vn 0.000000 0.000000 0.000000
vn 0.000000 0.000000 0.000000
vn 0.000000 0.000000 0.000000
vn 0.000000 0.000000 0.000000
vn 0.000000 0.000000 0.000000
vn 0.000000 0.000000 0.000000
vn 0.000000 0.000000 0.000000
vn 0.000000 0.000000 0.000000
vn 0.000000 0.000000 0.000000
vn 0.000000 0.000000 0.000000
vn 0.000000 0.000000 0.000000
vn 0.000000 0.000000 0.000000
vn -0.000003 1.000000 0.000004
vn -0.000003 1.000000 0.000004
vn -0.000003 1.000000 0.000004
vn -0.000002 1.000000 0.000001
vn -0.000002 1.000000 0.000001
vn -0.000002 1.000000 0.000001
vn -0.000002 1.000000 0.000001
vn -0.000002 1.000000 0.000000
vn -0.000002 1.000000 0.000000
vn -0.000002 1.000000 0.000000
vn -0.000002 1.000000 0.000000
vn -0.000002 1.000000 -0.000001
vn -0.000002 1.000000 -0.000001
vn -0.000002 1.000000 -0.000001
vn -0.000002 1.000000 -0.000001
vn -0.000003 1.000000 -0.000005
vn -0.000003 1.000000 -0.000005
vn -0.000003 1.000000 -0.000005
vn 0.000001 1.000000 -0.000004
vn 0.000001 1.000000 -0.000004
vn 0.000001 1.000000 -0.000004
vn 0.000001 1.000000 -0.000000
vn 0.000001 1.000000 -0.000000
vn 0.000001 1.000000 -0.000000
vn 0.000001 1.000000 -0.000000
vn 0.000001 1.000000 0.000000
vn 0.000001 1.000000 0.000000
vn 0.000001 1.000000 0.000000
vn 0.000001 1.000000 0.000000
vn 0.000001 1.000000 0.000000
vn 0.000001 1.000000 0.000000
vn 0.000001 1.000000 0.000000
vn 0.000001 1.000000 0.000000
vn 0.000001 1.000000 0.000004
vn 0.000001 1.000000 0.000004
vn 0.000001 1.000000 0.000004
vn 0.000001 1.000000 -0.000005
vn 0.000001 1.000000 -0.000005
vn 0.000001 1.000000 0.000000
vn 0.000001 1.000000 0.000000
vn 0.000001 1.000000 0.000000
vn 0.000001 1.000000 0.000000
vn 0.000001 1.000000 0.000000
vn 0.000001 1.000000 0.000000
vn 0.000001 1.000000 0.000004
vn 0.000001 1.000000 0.000004
vn 0.000277 0.999999 0.001461
vn 0.095479 0.863164 0.495814
vn -0.095521 0.863128 0.495869
vn -0.000249 0.999999 0.001313
vn 0.152883 0.582592 0.798257
vn 0.184997 0.136710 0.973184
vn -0.184820 0.136536 0.973242
vn -0.152784 0.582483 0.798355
vn 0.307331 0.580864 0.753754
vn 0.375289 0.141715 0.916011
vn 0.006140 0.999959 0.006655
vn 0.329301 0.867292 0.373317
vn -0.329326 0.867252 0.373387
vn -0.002241 0.999995 0.002428
vn -0.375542 0.141410 0.915954
vn -0.307388 0.580653 0.753893
vn -0.485468 0.873724 0.030446
vn -0.001649 0.999999 0.000067
vn -0.701691 0.588669 0.401370
vn -0.859153 0.150451 0.489102
vn -0.988343 0.144828 0.046947
vn -0.822278 0.567119 0.047262
vn -0.485467 0.873725 -0.030446
vn -0.001649 0.999999 -0.000067
vn -0.988343 0.144828 -0.046946
vn -0.822279 0.567119 -0.047261
vn -0.329318 0.867265 -0.373364
vn -0.002241 0.999995 -0.002428
vn -0.859153 0.150456 -0.489101
vn -0.701694 0.588665 -0.401372
vn -0.095506 0.863142 -0.495848
vn -0.000249 0.999999 -0.001313
vn -0.307370 0.580721 -0.753848
vn -0.375458 0.141511 -0.915973
vn -0.184903 0.136609 -0.973216
vn -0.152819 0.582517 -0.798324
vn 0.095479 0.863165 -0.495812
vn 0.000277 0.999999 -0.001461
vn 0.185020 0.136726 -0.973177
vn 0.152886 0.582590 -0.798257
vn 0.329301 0.867292 -0.373317
vn 0.006140 0.999959 -0.006655
vn 0.375289 0.141716 -0.916011
vn 0.307331 0.580864 -0.753754
vn 0.485458 0.873730 -0.030444
vn 0.005226 0.999986 -0.000211
vn 0.701700 0.588656 -0.401375
vn 0.859152 0.150463 -0.489101
vn 0.988343 0.144826 -0.046944
vn 0.822283 0.567113 -0.047260
vn 0.485458 0.873730 0.030444
vn 0.005226 0.999986 0.000211
vn 0.988343 0.144826 0.046944
vn 0.822283 0.567113 0.047260
vn 0.859151 0.150464 0.489101
vn 0.701700 0.588656 0.401375
vn 0.000000 1.000000 0.000000
vn 0.000000 1.000000 -0.000000
vn 0.000000 1.000000 0.000000
vn 0.000000 1.000000 -0.000000
vn 0.186713 -0.010823 0.982355
vn -0.187089 -0.011034 0.982281
vn -0.379816 -0.010455 0.925003
vn -0.869312 -0.004780 0.494242
vn -0.998785 -0.000477 0.049269
vn -0.998786 -0.000476 -0.049268
vn -0.869312 -0.004779 -0.494241
vn -0.379716 -0.010312 -0.925046
vn -0.186993 -0.010963 -0.982300
vn 0.186742 -0.010822 -0.982349
vn 0.379514 -0.010025 -0.925132
vn 0.869312 -0.004780 -0.494241
vn 0.998786 -0.000476 -0.049266
vn 0.998786 -0.000476 0.049266
vn 0.869312 -0.004779 0.494241
vn 0.379514 -0.010025 0.925132
s off
g pPlane2
usemtl initialShadingGroup
f 6/1/1 5/2/2 17/3/3
f 8/4/4 7/5/5 18/6/6
f 9/7/7 8/4/8 18/6/9 19/8/10
f 10/9/11 9/7/12 19/8/13 20/10/14
f 11/11/15 10/9/16 20/10/17
f 12/12/18 11/11/19 21/13/20
f 13/14/21 12/12/22 21/13/23 22/15/24
f 14/16/25 13/14/26 22/15/27 23/17/28
f 15/18/29 14/16/30 23/17/31 24/19/32
f 16/20/33 15/18/34 24/19/35 25/21/36
f 5/2/37 16/20/38 25/21/39 17/3/40
f 7/5/41 6/1/42 26/22/43
f 18/6/44 7/5/45 26/22/46 27/23/47
f 19/8/48 18/6/49 27/23/50 28/24/51
f 20/10/52 19/8/53 28/24/54 29/25/55
f 11/11/56 20/10/57 29/25/58
s 1
f 22/15/59 21/13/60 30/26/61
s 2
f 23/17/62 22/15/63 30/26/64 31/27/65
s 3
f 24/19/66 23/17/67 31/27/68 32/28/69
s 4
f 25/21/70 24/19/71 32/28/72 33/29/73
s 5
f 17/3/74 25/21/75 33/29/76
s 1
f 30/26/61 21/13/60 11/11/77 29/25/78
s 2
f 31/27/65 30/26/64 29/25/79 28/24/80
s 3
f 32/28/69 31/27/68 28/24/81 27/23/82
s 4
f 33/29/73 32/28/72 27/23/83 26/22/84
s 5
f 17/3/74 33/29/76 26/22/85 6/1/86
s 6
f 35/30/87 34/31/88 37/32/89 38/33/90
s 7
f 34/31/91 36/34/92 39/35/93 37/32/94
f 36/34/92 34/31/91 67/36/95 69/37/96
s 6
f 34/31/88 35/30/87 68/38/97 67/36/98
f 38/33/90 37/32/89 40/39/99 41/40/100
s 7
f 37/32/94 39/35/93 42/41/101 40/39/102
s 6
f 41/40/100 40/39/99 43/42/103 44/43/104
s 8
f 40/39/105 42/41/106 45/44/107 43/42/108
s 6
f 44/43/104 43/42/103 46/45/109 47/46/110
s 8
f 43/42/108 45/44/107 48/47/111 46/45/112
s 6
f 47/46/110 46/45/109 49/48/113 50/49/114
s 8
f 46/45/112 48/47/111 51/50/115 49/48/116
s 6
f 50/49/114 49/48/113 52/51/117 53/52/118
s 9
f 49/48/119 51/50/120 54/53/121 52/51/122
s 6
f 53/52/118 52/51/117 55/54/123 56/55/124
s 9
f 52/51/122 54/53/121 57/56/125 55/54/126
s 6
f 56/55/124 55/54/123 58/57/127 59/58/128
s 9
f 55/54/126 57/56/125 60/59/129 58/57/130
s 6
f 59/58/128 58/57/127 61/60/131 62/61/132
s 10
f 58/57/133 60/59/134 63/62/135 61/60/136
s 6
f 62/61/132 61/60/131 64/63/137 65/64/138
s 10
f 61/60/136 63/62/135 66/65/139 64/63/140
s 6
f 65/64/138 64/63/137 67/36/98 68/38/97
s 10
f 64/63/140 66/65/139 69/37/141 67/36/142
s 6
f 38/33/90 2/66/143 3/67/144 35/30/87
f 4/68/145 1/69/146 53/52/118 56/55/124
f 3/67/144 65/64/138 68/38/97 35/30/87
f 4/68/145 62/61/132 65/64/138 3/67/144
f 4/68/145 56/55/124 59/58/128 62/61/132
f 1/69/146 47/46/110 50/49/114 53/52/118
f 1/69/146 2/66/143 44/43/104 47/46/110
f 44/43/104 2/66/143 38/33/90 41/40/100
s 7
f 39/35/93 36/34/92 5/2/147 6/1/148
f 42/41/101 39/35/93 6/1/148 7/5/149
s 8
f 45/44/107 42/41/106 7/5/150 8/4/151
f 48/47/111 45/44/107 8/4/151 9/7/152
f 51/50/115 48/47/111 9/7/152 10/9/153
s 9
f 54/53/121 51/50/120 10/9/154 11/11/155
f 57/56/125 54/53/121 11/11/155 12/12/156
f 60/59/129 57/56/125 12/12/156 13/14/157
s 10
f 63/62/135 60/59/134 13/14/158 14/16/159
f 66/65/139 63/62/135 14/16/159 15/18/160
f 69/37/141 66/65/139 15/18/160 16/20/161
s 7
f 36/34/92 69/37/96 16/20/162 5/2/147
g default
v -4.000000 -0.015852 2.250000
v 4.000000 -0.015852 2.250000
v -4.000000 0.004148 2.250000
v 4.000000 0.004148 2.250000
v -4.000000 0.004148 -2.250000
v 4.000000 0.004148 -2.250000
v -4.000000 -0.015852 -2.250000
v 4.000000 -0.015852 -2.250000
vt 0.000000 0.000000
vt 1.000000 0.000000
vt 1.000000 0.000000
vt 0.000000 0.000000
vt 1.000000 1.000000
vt 0.000000 1.000000
vt 1.000000 1.000000
vt 0.000000 1.000000
vn 0.000000 0.000000 1.000000
vn 0.000000 0.000000 1.000000
vn 0.000000 0.000000 1.000000
vn 0.000000 0.000000 1.000000
vn 0.000000 1.000000 0.000000
vn 0.000000 1.000000 0.000000
vn 0.000000 1.000000 0.000000
vn 0.000000 1.000000 0.000000
vn 0.000000 0.000000 -1.000000
vn 0.000000 0.000000 -1.000000
vn 0.000000 0.000000 -1.000000
vn 0.000000 0.000000 -1.000000
vn 0.000000 -1.000000 0.000000
vn 0.000000 -1.000000 0.000000
vn 0.000000 -1.000000 0.000000
vn 0.000000 -1.000000 0.000000
vn 1.000000 0.000000 0.000000
vn 1.000000 0.000000 0.000000
vn 1.000000 0.000000 0.000000
vn 1.000000 0.000000 0.000000
vn -1.000000 0.000000 0.000000
vn -1.000000 0.000000 0.000000
vn -1.000000 0.000000 0.000000
vn -1.000000 0.000000 0.000000
s off
g pCube1
usemtl initialShadingGroup
f 70/70/163 71/71/164 73/72/165 72/73/166
f 72/73/167 73/72/168 75/74/169 74/75/170
f 74/75/171 75/74/172 77/76/173 76/77/174
f 76/77/175 77/76/176 71/71/177 70/70/178
f 71/71/179 77/76/180 75/74/181 73/72/182
f 76/77/183 70/70/184 72/73/185 74/75/186
