# This file uses centimeters as units for non-parametric coordinates.

mtllib TableTop.mtl
g default
v -4.000000 0.447839 2.250000
v 4.000000 0.447839 2.250000
v -4.000000 0.467840 2.250000
v 4.000000 0.467840 2.250000
v -4.000000 0.467840 -2.250000
v 4.000000 0.467840 -2.250000
v -4.000000 0.447839 -2.250000
v 4.000000 0.447839 -2.250000
vt 0.000000 0.000000
vt 1.000000 0.000000
vt 1.000000 0.000000
vt 0.000000 0.000000
vt 1.000000 1.000000
vt 0.000000 1.000000
vt 1.000000 1.000000
vt 0.000000 1.000000
vn 0.000000 0.000000 1.000000
vn 0.000000 0.000000 1.000000
vn 0.000000 0.000000 1.000000
vn 0.000000 0.000000 1.000000
vn 0.000000 1.000000 0.000000
vn 0.000000 1.000000 0.000000
vn 0.000000 1.000000 0.000000
vn 0.000000 1.000000 0.000000
vn 0.000000 0.000000 -1.000000
vn 0.000000 0.000000 -1.000000
vn 0.000000 0.000000 -1.000000
vn 0.000000 0.000000 -1.000000
vn 0.000000 -1.000000 0.000000
vn 0.000000 -1.000000 0.000000
vn 0.000000 -1.000000 0.000000
vn 0.000000 -1.000000 0.000000
vn 1.000000 0.000000 0.000000
vn 1.000000 0.000000 0.000000
vn 1.000000 0.000000 0.000000
vn 1.000000 0.000000 0.000000
vn -1.000000 0.000000 0.000000
vn -1.000000 0.000000 0.000000
vn -1.000000 0.000000 0.000000
vn -1.000000 0.000000 0.000000
s off
g glassCover
usemtl initialShadingGroup1
f 1/1/1 2/2/2 4/3/3 3/4/4
f 3/4/5 4/3/6 6/5/7 5/6/8
f 5/6/9 6/5/10 8/7/11 7/8/12
f 7/8/13 8/7/14 2/2/15 1/1/16
f 2/2/17 8/7/18 6/5/19 4/3/20
f 7/8/21 1/1/22 3/4/23 5/6/24
g default
v 4.000000 -0.045852 2.250000
v 4.000000 -0.045852 -2.250000
v -4.000000 -0.045852 -2.250000
v -4.000000 -0.045852 2.250000
v -2.190167 -0.239664 -1.602644
v -1.918766 -0.239664 -1.602645
v -1.684545 -0.239664 -1.506315
v -1.549064 -0.239664 -1.267859
v -1.549064 -0.239664 1.267859
v -1.684545 -0.239664 1.506315
v -1.918912 -0.239664 1.602644
v -2.190167 -0.239664 1.602644
v -2.424828 -0.239664 1.506315
v -2.560309 -0.239664 1.267859
v -2.560309 -0.239664 -1.267859
v -2.424828 -0.239664 -1.506315
v -2.190167 -0.239664 -1.602644
v -1.549064 -0.239664 -1.267859
v -1.549064 -0.239664 1.267859
v -1.684545 -0.239664 1.506315
v -2.190167 -0.239664 1.602644
v -2.424828 -0.239664 1.506315
v -2.560309 -0.239664 1.267859
v -2.560309 -0.239664 -1.267859
v -2.424828 -0.239664 -1.506315
v -1.918324 -0.239664 -1.506315
v -1.918323 -0.239664 -1.267859
v -1.918333 -0.239664 1.267859
v -1.918324 -0.239664 1.506315
v -2.189643 -0.239664 1.506315
v -2.189644 -0.239664 1.267859
v -2.189644 -0.239664 -1.267859
v -2.189643 -0.239664 -1.506315
v -2.195313 -0.060073 -1.624761
v -2.199713 -0.045852 -1.648927
v -2.190128 -0.094297 -1.601020
v -1.914043 -0.060074 -1.624761
v -1.909660 -0.045852 -1.648927
v -1.919190 -0.094297 -1.601020
v -1.668159 -0.060065 -1.525032
v -1.650701 -0.045852 -1.542767
v -1.684604 -0.094298 -1.504852
v -1.526012 -0.060049 -1.277826
v -1.500615 -0.045852 -1.278963
v -1.549064 -0.094300 -1.266614
v -1.526012 -0.060049 1.277825
v -1.500615 -0.045852 1.278963
v -1.549064 -0.094300 1.266614
v -1.668158 -0.060065 1.525029
v -1.650701 -0.045852 1.542767
v -1.684598 -0.094298 1.504842
v -1.914049 -0.060074 1.624761
v -1.909660 -0.045852 1.648927
v -1.919208 -0.094297 1.601020
v -2.195313 -0.060073 1.624760
v -2.199713 -0.045852 1.648927
v -2.190128 -0.094297 1.601020
v -2.441218 -0.060065 1.525023
v -2.458672 -0.045852 1.542767
v -2.424786 -0.094298 1.504822
v -2.583360 -0.060049 1.277825
v -2.608757 -0.045852 1.278963
v -2.560309 -0.094300 1.266614
v -2.583360 -0.060049 -1.277825
v -2.608757 -0.045852 -1.278963
v -2.560309 -0.094300 -1.266614
v -2.441218 -0.060065 -1.525023
v -2.458672 -0.045852 -1.542767
v -2.424786 -0.094298 -1.504822
v 7.626221 0.528623 -4.289747
v -7.626221 0.528623 -4.289747
v -7.626221 0.528623 4.289747
v 7.626221 0.528623 4.289747
v 4.000000 0.385018 -2.250000
v 4.143604 0.528623 -2.393604
v -4.000000 0.385018 -2.250000
v -4.143604 0.528623 -2.393604
v -4.000000 0.385018 2.250000
v -4.143604 0.528623 2.393604
v 4.000000 0.385018 2.250000
v 4.143604 0.528623 2.393604
vt 0.385264 0.769910
vt 0.369177 0.769910
vt 0.369177 0.769910
vt 0.407177 0.749960
vt 0.399146 0.764170
vt 0.407177 0.749960
vt 0.407177 0.598854
vt 0.407177 0.598854
vt 0.399146 0.584644
vt 0.399146 0.584644
vt 0.385255 0.578904
vt 0.369177 0.578904
vt 0.369177 0.578904
vt 0.355268 0.584644
vt 0.355268 0.584644
vt 0.347238 0.598854
vt 0.347238 0.598854
vt 0.347238 0.749960
vt 0.347238 0.749960
vt 0.355268 0.764170
vt 0.355268 0.764170
vt 0.385290 0.764170
vt 0.385290 0.749960
vt 0.385289 0.598854
vt 0.385290 0.584644
vt 0.369208 0.584644
vt 0.369208 0.598854
vt 0.369208 0.749960
vt 0.369208 0.764170
vt 0.368611 0.772668
vt 0.368872 0.771228
vt 0.385544 0.771228
vt 0.385803 0.772668
vt 0.369179 0.769813
vt 0.385239 0.769813
vt 0.354297 0.765284
vt 0.355271 0.764081
vt 0.353262 0.766342
vt 0.400118 0.765285
vt 0.401152 0.766342
vt 0.399143 0.764082
vt 0.408543 0.750554
vt 0.410048 0.750622
vt 0.407177 0.749886
vt 0.408543 0.598260
vt 0.410048 0.598193
vt 0.407177 0.598928
vt 0.400118 0.583529
vt 0.401152 0.582472
vt 0.399143 0.584732
vt 0.385543 0.577586
vt 0.385803 0.576146
vt 0.385237 0.579001
vt 0.368872 0.577586
vt 0.368611 0.576146
vt 0.369179 0.579001
vt 0.354297 0.583530
vt 0.353262 0.582472
vt 0.355271 0.584733
vt 0.345872 0.598260
vt 0.344366 0.598193
vt 0.347238 0.598928
vt 0.345872 0.750554
vt 0.344366 0.750622
vt 0.347238 0.749886
vt 0.736083 0.808486
vt 0.261904 0.808486
vt 0.261904 0.540328
vt 0.736083 0.540328
vt 0.861907 0.290462
vt 0.873277 0.303434
vt 0.376560 0.303434
vt 0.309623 0.318311
vt 0.296772 0.040350
vt 0.309623 0.029665
vt 0.214635 0.307625
vt 0.227486 0.318311
vt 0.227486 0.029665
vt 0.387929 0.227576
vt 0.376560 0.240548
vt 0.873277 0.240548
vt 0.387929 0.251543
vt 0.861907 0.251543
vt 0.387929 0.290462
vt 0.861907 0.188657
vt 0.387929 0.188657
vt 0.861907 0.227576
vt 0.176078 0.040350
vt 0.176078 0.307625
vt 0.214635 0.040350
vt 0.258215 0.307625
vt 0.258214 0.040350
vt 0.296772 0.307625
vt 0.744595 0.817044
vt 0.951017 0.930037
vt 0.253392 0.531770
vt 0.046969 0.418777
vt 0.253392 0.817044
vt 0.046969 0.930037
vt 0.744595 0.531770
vt 0.951017 0.418777
vn 0.000000 0.000000 0.000000
vn 0.000000 0.000000 0.000000
vn 0.000000 0.000000 0.000000
vn 0.000000 0.000000 0.000000
vn 0.000000 0.000000 0.000000
vn 0.000000 0.000000 0.000000
vn 0.000000 0.000000 0.000000
vn 0.000000 0.000000 0.000000
vn 0.000000 0.000000 0.000000
vn 0.000000 0.000000 0.000000
vn 0.000000 0.000000 0.000000
vn 0.000000 0.000000 0.000000
vn 0.000000 0.000000 0.000000
vn 0.000000 0.000000 0.000000
vn 0.000000 0.000000 0.000000
vn 0.000000 0.000000 0.000000
vn 0.000000 0.000000 0.000000
vn 0.000000 0.000000 0.000000
vn 0.000000 0.000000 0.000000
vn 0.000000 0.000000 0.000000
vn 0.000000 0.000000 0.000000
vn 0.000000 0.000000 0.000000
vn 0.000000 0.000000 0.000000
vn 0.000000 0.000000 0.000000
vn 0.000000 0.000000 0.000000
vn 0.000000 0.000000 0.000000
vn 0.000000 0.000000 0.000000
vn 0.000000 0.000000 0.000000
vn 0.000000 0.000000 0.000000
vn 0.000000 0.000000 0.000000
vn 0.000000 0.000000 0.000000
vn 0.000000 0.000000 0.000000
vn 0.000000 0.000000 0.000000
vn 0.000000 0.000000 0.000000
vn 0.000000 0.000000 0.000000
vn 0.000000 0.000000 0.000000
vn 0.000000 0.000000 0.000000
vn 0.000000 0.000000 0.000000
vn 0.000000 0.000000 0.000000
vn 0.000000 0.000000 0.000000
vn -0.000003 1.000000 0.000004
vn -0.000003 1.000000 0.000004
vn -0.000003 1.000000 0.000004
vn -0.000002 1.000000 0.000001
vn -0.000002 1.000000 0.000001
vn -0.000002 1.000000 0.000001
vn -0.000002 1.000000 0.000001
vn -0.000002 1.000000 0.000000
vn -0.000002 1.000000 0.000000
vn -0.000002 1.000000 0.000000
vn -0.000002 1.000000 0.000000
vn -0.000002 1.000000 -0.000001
vn -0.000002 1.000000 -0.000001
vn -0.000002 1.000000 -0.000001
vn -0.000002 1.000000 -0.000001
vn -0.000003 1.000000 -0.000005
vn -0.000003 1.000000 -0.000005
vn -0.000003 1.000000 -0.000005
vn 0.000001 1.000000 -0.000004
vn 0.000001 1.000000 -0.000004
vn 0.000001 1.000000 -0.000004
vn 0.000001 1.000000 0.000000
vn 0.000001 1.000000 0.000000
vn 0.000001 1.000000 0.000000
vn 0.000001 1.000000 0.000000
vn 0.000001 1.000000 0.000000
vn 0.000001 1.000000 0.000000
vn 0.000001 1.000000 0.000000
vn 0.000001 1.000000 0.000000
vn 0.000001 1.000000 0.000000
vn 0.000001 1.000000 0.000000
vn 0.000001 1.000000 0.000000
vn 0.000001 1.000000 0.000000
vn 0.000001 1.000000 0.000004
vn 0.000001 1.000000 0.000004
vn 0.000001 1.000000 0.000004
vn 0.000001 1.000000 -0.000004
vn 0.000001 1.000000 -0.000004
vn 0.000001 1.000000 -0.000005
vn 0.000001 1.000000 -0.000005
vn 0.000001 1.000000 0.000000
vn 0.000001 1.000000 0.000000
vn 0.000001 1.000000 0.000000
vn 0.000001 1.000000 0.000000
vn 0.000001 1.000000 0.000000
vn 0.000001 1.000000 0.000000
vn 0.000001 1.000000 0.000000
vn 0.000001 1.000000 0.000000
vn 0.000001 1.000000 0.000000
vn 0.000001 1.000000 0.000000
vn 0.000001 1.000000 0.000000
vn 0.000001 1.000000 0.000000
vn 0.000001 1.000000 0.000004
vn 0.000001 1.000000 0.000004
vn 0.000001 1.000000 0.000004
vn 0.000001 1.000000 0.000004
vn 0.000277 0.999999 0.001461
vn 0.095479 0.863164 0.495814
vn -0.095521 0.863128 0.495869
vn -0.000249 0.999999 0.001313
vn 0.152883 0.582592 0.798257
vn 0.184997 0.136710 0.973184
vn -0.184820 0.136536 0.973242
vn -0.152784 0.582483 0.798355
vn 0.184997 0.136710 0.973184
vn 0.152883 0.582592 0.798257
vn 0.307331 0.580864 0.753754
vn 0.375289 0.141715 0.916011
vn 0.095479 0.863164 0.495814
vn 0.000277 0.999999 0.001461
vn 0.006140 0.999959 0.006655
vn 0.329301 0.867292 0.373317
vn -0.000249 0.999999 0.001313
vn -0.095521 0.863128 0.495869
vn -0.329326 0.867252 0.373387
vn -0.002241 0.999995 0.002428
vn -0.152784 0.582483 0.798355
vn -0.184820 0.136536 0.973242
vn -0.375542 0.141410 0.915954
vn -0.307388 0.580653 0.753893
vn -0.002241 0.999995 0.002428
vn -0.329326 0.867252 0.373387
vn -0.485468 0.873724 0.030446
vn -0.001649 0.999999 0.000067
vn -0.701691 0.588669 0.401370
vn -0.859153 0.150451 0.489102
vn -0.988343 0.144828 0.046947
vn -0.822278 0.567119 0.047262
vn -0.001649 0.999999 0.000067
vn -0.485468 0.873724 0.030446
vn -0.485467 0.873725 -0.030446
vn -0.001649 0.999999 -0.000067
vn -0.822278 0.567119 0.047262
vn -0.988343 0.144828 0.046947
vn -0.988343 0.144828 -0.046946
vn -0.822279 0.567119 -0.047261
vn -0.001649 0.999999 -0.000067
vn -0.485467 0.873725 -0.030446
vn -0.329318 0.867265 -0.373364
vn -0.002241 0.999995 -0.002428
vn -0.822279 0.567119 -0.047261
vn -0.988343 0.144828 -0.046946
vn -0.859153 0.150456 -0.489101
vn -0.701694 0.588665 -0.401372
vn -0.002241 0.999995 -0.002428
vn -0.329318 0.867265 -0.373364
vn -0.095506 0.863142 -0.495848
vn -0.000249 0.999999 -0.001313
vn -0.307370 0.580721 -0.753848
vn -0.375458 0.141511 -0.915973
vn -0.184903 0.136609 -0.973216
vn -0.152819 0.582517 -0.798324
vn -0.000249 0.999999 -0.001313
vn -0.095506 0.863142 -0.495848
vn 0.095479 0.863165 -0.495812
vn 0.000277 0.999999 -0.001461
vn -0.152819 0.582517 -0.798324
vn -0.184903 0.136609 -0.973216
vn 0.185020 0.136726 -0.973177
vn 0.152886 0.582590 -0.798257
vn 0.000277 0.999999 -0.001461
vn 0.095479 0.863165 -0.495812
vn 0.329301 0.867292 -0.373317
vn 0.006140 0.999959 -0.006655
vn 0.152886 0.582590 -0.798257
vn 0.185020 0.136726 -0.973177
vn 0.375289 0.141716 -0.916010
vn 0.307331 0.580864 -0.753754
vn 0.006140 0.999959 -0.006655
vn 0.329301 0.867292 -0.373317
vn 0.485458 0.873730 -0.030444
vn 0.005226 0.999986 -0.000211
vn 0.701700 0.588656 -0.401375
vn 0.859152 0.150463 -0.489101
vn 0.988343 0.144826 -0.046944
vn 0.822283 0.567113 -0.047260
vn 0.005226 0.999986 -0.000211
vn 0.485458 0.873730 -0.030444
vn 0.485458 0.873730 0.030444
vn 0.005226 0.999986 0.000211
vn 0.822283 0.567113 -0.047260
vn 0.988343 0.144826 -0.046944
vn 0.988343 0.144826 0.046944
vn 0.822283 0.567113 0.047260
vn 0.005226 0.999986 0.000211
vn 0.485458 0.873730 0.030444
vn 0.329301 0.867292 0.373317
vn 0.006140 0.999959 0.006655
vn 0.822283 0.567113 0.047260
vn 0.988343 0.144826 0.046944
vn 0.859151 0.150464 0.489101
vn 0.701700 0.588656 0.401375
vn -0.000249 0.999999 0.001313
vn 0.000000 1.000000 0.000000
vn 0.000000 1.000000 0.000000
vn 0.000277 0.999999 0.001461
vn 0.000000 1.000000 0.000000
vn 0.000000 1.000000 0.000000
vn -0.000249 0.999999 -0.001313
vn 0.000277 0.999999 -0.001461
vn 0.000000 1.000000 0.000000
vn 0.005226 0.999986 0.000211
vn 0.006140 0.999959 0.006655
vn 0.000277 0.999999 0.001461
vn 0.000000 1.000000 0.000000
vn 0.005226 0.999986 -0.000211
vn 0.005226 0.999986 0.000211
vn 0.000000 1.000000 0.000000
vn 0.000000 1.000000 0.000000
vn 0.000277 0.999999 -0.001461
vn 0.006140 0.999959 -0.006655
vn 0.005226 0.999986 -0.000211
vn 0.000000 1.000000 0.000000
vn -0.001649 0.999999 -0.000067
vn -0.002241 0.999995 -0.002428
vn -0.000249 0.999999 -0.001313
vn 0.000000 1.000000 0.000000
vn 0.000000 1.000000 0.000000
vn -0.001649 0.999999 0.000067
vn -0.001649 0.999999 -0.000067
vn -0.001649 0.999999 0.000067
vn 0.000000 1.000000 0.000000
vn -0.000249 0.999999 0.001313
vn -0.002241 0.999995 0.002428
vn -0.184820 0.136536 0.973242
vn 0.184997 0.136710 0.973184
vn 0.186713 -0.010823 0.982355
vn -0.187089 -0.011034 0.982281
vn -0.375542 0.141410 0.915954
vn -0.184820 0.136536 0.973242
vn -0.187089 -0.011034 0.982281
vn -0.379816 -0.010455 0.925003
vn -0.988343 0.144828 0.046947
vn -0.859153 0.150451 0.489102
vn -0.869311 -0.004780 0.494242
vn -0.998785 -0.000477 0.049269
vn -0.988343 0.144828 -0.046946
vn -0.988343 0.144828 0.046947
vn -0.998785 -0.000477 0.049269
vn -0.998785 -0.000476 -0.049268
vn -0.859153 0.150456 -0.489101
vn -0.988343 0.144828 -0.046946
vn -0.998785 -0.000476 -0.049268
vn -0.869312 -0.004779 -0.494241
vn -0.184903 0.136609 -0.973216
vn -0.375458 0.141511 -0.915973
vn -0.379716 -0.010312 -0.925046
vn -0.186993 -0.010963 -0.982300
vn 0.185020 0.136726 -0.973177
vn -0.184903 0.136609 -0.973216
vn -0.186993 -0.010963 -0.982300
vn 0.186742 -0.010822 -0.982349
vn 0.375289 0.141716 -0.916010
vn 0.185020 0.136726 -0.973177
vn 0.186742 -0.010822 -0.982349
vn 0.379514 -0.010025 -0.925132
vn 0.988343 0.144826 -0.046944
vn 0.859152 0.150463 -0.489101
vn 0.869312 -0.004780 -0.494241
vn 0.998786 -0.000476 -0.049266
vn 0.988343 0.144826 0.046944
vn 0.988343 0.144826 -0.046944
vn 0.998786 -0.000476 -0.049266
vn 0.998786 -0.000476 0.049266
vn 0.859151 0.150464 0.489101
vn 0.988343 0.144826 0.046944
vn 0.998786 -0.000476 0.049266
vn 0.869312 -0.004779 0.494241
vn 0.184997 0.136710 0.973184
vn 0.375289 0.141715 0.916011
vn 0.379514 -0.010025 0.925132
vn 0.186713 -0.010823 0.982355
vn 0.000000 0.707107 0.707107
vn 0.000000 0.707107 0.707107
vn 0.000000 0.707107 0.707107
vn 0.000000 0.707107 0.707107
vn -0.707107 0.707107 0.000000
vn -0.707107 0.707107 0.000000
vn -0.707107 0.707107 0.000000
vn -0.707107 0.707107 0.000000
vn 0.707107 0.707107 0.000000
vn 0.707107 0.707107 0.000000
vn 0.707107 0.707107 0.000000
vn 0.707107 0.707107 0.000000
vn 0.000000 0.707107 -0.707107
vn 0.000000 0.707107 -0.707107
vn 0.000000 0.707107 -0.707107
vn 0.000000 0.707107 -0.707107
vn 0.000000 0.000000 1.000000
vn 0.000000 0.000000 1.000000
vn 0.000000 0.000000 1.000000
vn 0.000000 0.000000 1.000000
vn 0.000000 0.000000 -1.000000
vn 0.000000 0.000000 -1.000000
vn 0.000000 0.000000 -1.000000
vn 0.000000 0.000000 -1.000000
vn 1.000000 0.000000 0.000000
vn 1.000000 0.000000 0.000000
vn 1.000000 0.000000 0.000000
vn 1.000000 0.000000 0.000000
vn -1.000000 0.000000 0.000000
vn -1.000000 0.000000 0.000000
vn -1.000000 0.000000 0.000000
vn -1.000000 0.000000 0.000000
vn 0.000000 1.000000 0.000000
vn 0.000000 1.000000 0.000000
vn 0.000000 1.000000 0.000000
vn 0.000000 1.000000 0.000000
vn 0.000000 1.000000 -0.000000
vn 0.000000 1.000000 -0.000000
vn 0.000000 1.000000 -0.000000
vn 0.000000 1.000000 -0.000000
s off
g initialShadingGroup TableBase
f 14/9/25 13/10/26 25/11/27
f 16/12/28 15/13/29 26/14/30
f 17/15/31 16/12/32 26/14/33 27/16/34
f 18/17/35 17/15/36 27/16/37 28/18/38
f 19/19/39 18/17/40 28/18/41
f 20/20/42 19/19/43 29/21/44
f 21/22/45 20/20/46 29/21/47 30/23/48
f 22/24/49 21/22/50 30/23/51 31/25/52
f 23/26/53 22/24/54 31/25/55 32/27/56
f 24/28/57 23/26/58 32/27/59 33/29/60
f 13/10/61 24/28/62 33/29/63 25/11/64
f 15/13/65 14/9/66 34/30/67
f 26/14/68 15/13/69 34/30/70 35/31/71
f 27/16/72 26/14/73 35/31/74 36/32/75
f 28/18/76 27/16/77 36/32/78 37/33/79
f 19/19/80 28/18/81 37/33/82
f 30/23/83 29/21/84 38/34/85
f 31/25/86 30/23/87 38/34/88 39/35/89
f 32/27/90 31/25/91 39/35/92 40/36/93
f 33/29/94 32/27/95 40/36/96 41/37/97
f 25/11/98 33/29/99 41/37/100
f 38/34/101 29/21/102 19/19/103 37/33/104
f 39/35/105 38/34/106 37/33/107 36/32/108
f 40/36/109 39/35/110 36/32/111 35/31/112
f 41/37/113 40/36/114 35/31/115 34/30/116
f 25/11/117 41/37/118 34/30/119 14/9/120
f 43/38/121 42/39/122 45/40/123 46/41/124
f 42/39/125 44/42/126 47/43/127 45/40/128
f 44/42/129 42/39/130 75/44/131 77/45/132
f 42/39/133 43/38/134 76/46/135 75/44/136
f 46/41/137 45/40/138 48/47/139 49/48/140
f 45/40/141 47/43/142 50/49/143 48/47/144
f 49/48/145 48/47/146 51/50/147 52/51/148
f 48/47/149 50/49/150 53/52/151 51/50/152
f 52/51/153 51/50/154 54/53/155 55/54/156
f 51/50/157 53/52/158 56/55/159 54/53/160
f 55/54/161 54/53/162 57/56/163 58/57/164
f 54/53/165 56/55/166 59/58/167 57/56/168
f 58/57/169 57/56/170 60/59/171 61/60/172
f 57/56/173 59/58/174 62/61/175 60/59/176
f 61/60/177 60/59/178 63/62/179 64/63/180
f 60/59/181 62/61/182 65/64/183 63/62/184
f 64/63/185 63/62/186 66/65/187 67/66/188
f 63/62/189 65/64/190 68/67/191 66/65/192
f 67/66/193 66/65/194 69/68/195 70/69/196
f 66/65/197 68/67/198 71/70/199 69/68/200
f 70/69/201 69/68/202 72/71/203 73/72/204
f 69/68/205 71/70/206 74/73/207 72/71/208
f 73/72/209 72/71/210 75/44/211 76/46/212
f 72/71/213 74/73/214 77/45/215 75/44/216
f 46/41/217 10/74/218 11/75/219 43/38/220
f 12/76/221 9/77/222 61/60/223 64/63/224
f 11/75/225 73/72/226 76/46/227 43/38/228
f 12/76/229 70/69/230 73/72/231 11/75/232
f 12/76/233 64/63/234 67/66/235 70/69/236
f 9/77/237 55/54/238 58/57/239 61/60/240
f 9/77/241 10/74/242 52/51/243 55/54/244
f 52/51/245 10/74/246 46/41/247 49/48/248
f 47/43/249 44/42/250 13/10/251 14/9/252
f 50/49/253 47/43/254 14/9/255 15/13/256
f 53/52/257 50/49/258 15/13/259 16/12/260
f 56/55/261 53/52/262 16/12/263 17/15/264
f 59/58/265 56/55/266 17/15/267 18/17/268
f 62/61/269 59/58/270 18/17/271 19/19/272
f 65/64/273 62/61/274 19/19/275 20/20/276
f 68/67/277 65/64/278 20/20/279 21/22/280
f 71/70/281 68/67/282 21/22/283 22/24/284
f 74/73/285 71/70/286 22/24/287 23/26/288
f 77/45/289 74/73/290 23/26/291 24/28/292
f 44/42/293 77/45/294 24/28/295 13/10/296
f 82/78/297 83/79/298 85/80/299 84/92/300
f 83/81/301 82/101/302 88/82/303 89/83/304
f 84/84/305 85/85/306 87/86/307 86/98/308
f 86/87/309 87/88/310 89/89/311 88/95/312
f 11/90/313 10/91/314 82/78/315 84/92/316
f 9/93/317 12/94/318 86/87/319 88/95/320
f 12/96/321 11/97/322 84/84/323 86/98/324
f 10/99/325 9/100/326 88/82/327 82/101/328
s 1
f 85/106/329 83/102/330 78/103/331 79/107/332
f 89/108/333 87/104/334 80/105/335 81/109/336
f 87/104/334 85/106/329 79/107/332 80/105/335
f 83/102/330 89/108/333 81/109/336 78/103/331
g default
v -2.638201 -0.143418 1.657594
v -1.482042 -0.143418 1.657594
v -2.638201 -0.107600 1.657594
v -1.482042 -0.107600 1.657594
v -2.638201 -0.107600 -1.657594
v -1.482042 -0.107600 -1.657594
v -2.638201 -0.143418 -1.657594
v -1.482042 -0.143418 -1.657594
v -2.438201 -0.143095 1.457594
v -1.682042 -0.143095 1.457594
v -1.682042 -0.107277 1.457594
v -2.438201 -0.107277 1.457594
v -2.438201 -0.107277 -1.457594
v -1.682042 -0.107277 -1.457594
v -1.682042 -0.143095 -1.457594
v -2.438201 -0.143095 -1.457594
vt 0.172987 0.060328
vt 0.172987 0.060328
vt 0.827013 0.060328
vt 0.827013 0.060328
vt 0.172987 0.939672
vt 0.172987 0.939672
vt 0.827013 0.939672
vt 0.827013 0.939672
vt 0.000000 0.000000
vt 1.000000 0.000000
vt 1.000000 0.000000
vt 0.000000 0.000000
vt 0.000000 1.000000
vt 1.000000 1.000000
vt 1.000000 1.000000
vt 0.000000 1.000000
vn 0.000000 0.000000 -1.000000
vn 0.000000 0.000000 -1.000000
vn 0.000000 0.000000 -1.000000
vn 0.000000 0.000000 -1.000000
vn 0.000000 0.000000 1.000000
vn 0.000000 0.000000 1.000000
vn 0.000000 0.000000 1.000000
vn 0.000000 0.000000 1.000000
vn -1.000000 0.000000 0.000000
vn -1.000000 0.000000 0.000000
vn -1.000000 0.000000 0.000000
vn -1.000000 0.000000 0.000000
vn 1.000000 0.000000 0.000000
vn 1.000000 0.000000 0.000000
vn 1.000000 0.000000 0.000000
vn 1.000000 0.000000 0.000000
vn 0.000000 0.000000 1.000000
vn 0.000000 0.000000 1.000000
vn 0.000000 0.000000 1.000000
vn 0.000000 0.000000 1.000000
vn 0.000000 0.000000 -1.000000
vn 0.000000 0.000000 -1.000000
vn 0.000000 0.000000 -1.000000
vn 0.000000 0.000000 -1.000000
vn 1.000000 0.000000 0.000000
vn 1.000000 0.000000 0.000000
vn 1.000000 0.000000 0.000000
vn 1.000000 0.000000 0.000000
vn -1.000000 0.000000 0.000000
vn -1.000000 0.000000 0.000000
vn -1.000000 0.000000 0.000000
vn -1.000000 0.000000 0.000000
vn 0.001236 -0.999999 -0.000380
vn 0.001236 -0.999999 -0.000380
vn -0.001236 -0.999999 -0.000380
vn -0.001236 -0.999999 -0.000380
vn 0.001236 0.999999 0.000379
vn 0.001236 0.999999 0.000379
vn -0.001236 0.999999 0.000379
vn -0.001236 0.999999 0.000379
vn -0.001236 0.999999 -0.000379
vn -0.001236 0.999999 -0.000379
vn 0.001236 0.999999 -0.000379
vn 0.001236 0.999999 -0.000379
vn -0.001236 -0.999999 0.000380
vn -0.001236 -0.999999 0.000380
vn 0.001236 -0.999999 0.000380
vn 0.001236 -0.999999 0.000380
s off
g initialShadingGroup LedCover
f 98/110/337 101/111/338 100/112/339 99/113/340
f 102/114/341 105/115/342 104/116/343 103/117/344
f 99/113/345 100/112/346 103/117/347 104/116/348
f 105/115/349 102/114/350 101/111/351 98/110/352
f 90/118/353 91/119/354 93/120/355 92/121/356
f 94/122/357 95/123/358 97/124/359 96/125/360
f 91/119/361 97/124/362 95/123/363 93/120/364
f 96/125/365 90/118/366 92/121/367 94/122/368
s 1
f 90/118/369 98/110/370 99/113/371 91/119/372
s 2
f 93/120/373 100/112/374 101/111/375 92/121/376
f 94/122/377 102/114/378 103/117/379 95/123/380
s 1
f 97/124/381 104/116/382 105/115/383 96/125/384
f 91/119/372 99/113/371 104/116/382 97/124/381
s 2
f 95/123/380 103/117/379 100/112/374 93/120/373
s 1
f 96/125/384 105/115/383 98/110/370 90/118/369
s 2
f 92/121/376 101/111/375 102/114/378 94/122/377
